<mxfile host="Electron" agent="Mozilla/5.0 (Windows NT 10.0; Win64; x64) AppleWebKit/537.36 (KHTML, like Gecko) draw.io/24.7.5 Chrome/126.0.6478.183 Electron/31.3.0 Safari/537.36" version="24.7.5">
  <diagram name="第 1 页" id="T1hDiawhg-ZVASG9-Nav">
    <mxGraphModel dx="1347" dy="1007" grid="1" gridSize="10" guides="1" tooltips="1" connect="1" arrows="1" fold="1" page="1" pageScale="1" pageWidth="827" pageHeight="1169" math="0" shadow="0">
      <root>
        <mxCell id="0" />
        <mxCell id="1" parent="0" />
        <mxCell id="XJRMVMmhqJX4nJESAcrO-63" value="" style="rounded=0;whiteSpace=wrap;html=1;dashed=1;fillColor=#FFFFCC;" vertex="1" parent="1">
          <mxGeometry x="1450" y="270" width="80" height="170" as="geometry" />
        </mxCell>
        <mxCell id="XJRMVMmhqJX4nJESAcrO-49" value="&lt;span style=&quot;font-size: 18px;&quot;&gt;8&lt;/span&gt;" style="ellipse;whiteSpace=wrap;html=1;aspect=fixed;" vertex="1" parent="1">
          <mxGeometry x="1470" y="380" width="50" height="50" as="geometry" />
        </mxCell>
        <mxCell id="XJRMVMmhqJX4nJESAcrO-62" value="" style="rounded=0;whiteSpace=wrap;html=1;dashed=1;fillColor=#FFCCFF;" vertex="1" parent="1">
          <mxGeometry x="1350" y="270" width="80" height="170" as="geometry" />
        </mxCell>
        <mxCell id="XJRMVMmhqJX4nJESAcrO-61" value="" style="rounded=0;whiteSpace=wrap;html=1;dashed=1;fillColor=#CCE5FF;" vertex="1" parent="1">
          <mxGeometry x="1190" y="270" width="130" height="170" as="geometry" />
        </mxCell>
        <mxCell id="XJRMVMmhqJX4nJESAcrO-59" value="" style="rounded=0;whiteSpace=wrap;html=1;dashed=1;fillColor=#D5E8D4;" vertex="1" parent="1">
          <mxGeometry x="1004" y="270" width="150" height="170" as="geometry" />
        </mxCell>
        <mxCell id="XJRMVMmhqJX4nJESAcrO-2" style="rounded=0;orthogonalLoop=1;jettySize=auto;html=1;exitX=1;exitY=0.5;exitDx=0;exitDy=0;entryX=0;entryY=0;entryDx=0;entryDy=0;endArrow=none;endFill=0;" edge="1" parent="1" source="XJRMVMmhqJX4nJESAcrO-4" target="XJRMVMmhqJX4nJESAcrO-16">
          <mxGeometry relative="1" as="geometry" />
        </mxCell>
        <mxCell id="XJRMVMmhqJX4nJESAcrO-3" style="rounded=0;orthogonalLoop=1;jettySize=auto;html=1;exitX=0;exitY=0;exitDx=0;exitDy=0;entryX=1;entryY=1;entryDx=0;entryDy=0;endArrow=none;endFill=0;" edge="1" parent="1" source="XJRMVMmhqJX4nJESAcrO-4" target="XJRMVMmhqJX4nJESAcrO-19">
          <mxGeometry relative="1" as="geometry" />
        </mxCell>
        <mxCell id="XJRMVMmhqJX4nJESAcrO-4" value="&lt;span style=&quot;font-size: 18px;&quot;&gt;3&lt;/span&gt;" style="ellipse;whiteSpace=wrap;html=1;aspect=fixed;fillColor=#f8cecc;strokeColor=#b85450;" vertex="1" parent="1">
          <mxGeometry x="630" y="260" width="50" height="50" as="geometry" />
        </mxCell>
        <mxCell id="XJRMVMmhqJX4nJESAcrO-5" style="edgeStyle=orthogonalEdgeStyle;rounded=0;orthogonalLoop=1;jettySize=auto;html=1;exitX=1;exitY=0.5;exitDx=0;exitDy=0;entryX=0;entryY=0.5;entryDx=0;entryDy=0;endArrow=none;endFill=0;" edge="1" parent="1" source="XJRMVMmhqJX4nJESAcrO-7" target="XJRMVMmhqJX4nJESAcrO-10">
          <mxGeometry relative="1" as="geometry" />
        </mxCell>
        <mxCell id="XJRMVMmhqJX4nJESAcrO-6" style="rounded=0;orthogonalLoop=1;jettySize=auto;html=1;exitX=1;exitY=0;exitDx=0;exitDy=0;entryX=0;entryY=1;entryDx=0;entryDy=0;endArrow=none;endFill=0;" edge="1" parent="1" source="XJRMVMmhqJX4nJESAcrO-7" target="XJRMVMmhqJX4nJESAcrO-4">
          <mxGeometry relative="1" as="geometry" />
        </mxCell>
        <mxCell id="XJRMVMmhqJX4nJESAcrO-7" value="&lt;span style=&quot;font-size: 18px;&quot;&gt;4&lt;/span&gt;" style="ellipse;whiteSpace=wrap;html=1;aspect=fixed;fillColor=#dae8fc;strokeColor=#6c8ebf;" vertex="1" parent="1">
          <mxGeometry x="570" y="340" width="50" height="50" as="geometry" />
        </mxCell>
        <mxCell id="XJRMVMmhqJX4nJESAcrO-8" style="rounded=0;orthogonalLoop=1;jettySize=auto;html=1;exitX=0;exitY=0;exitDx=0;exitDy=0;entryX=1;entryY=1;entryDx=0;entryDy=0;endArrow=none;endFill=0;" edge="1" parent="1" source="XJRMVMmhqJX4nJESAcrO-10" target="XJRMVMmhqJX4nJESAcrO-4">
          <mxGeometry relative="1" as="geometry" />
        </mxCell>
        <mxCell id="XJRMVMmhqJX4nJESAcrO-9" style="rounded=0;orthogonalLoop=1;jettySize=auto;html=1;exitX=1;exitY=0.5;exitDx=0;exitDy=0;entryX=0;entryY=1;entryDx=0;entryDy=0;endArrow=none;endFill=0;" edge="1" parent="1" source="XJRMVMmhqJX4nJESAcrO-10" target="XJRMVMmhqJX4nJESAcrO-23">
          <mxGeometry relative="1" as="geometry" />
        </mxCell>
        <mxCell id="XJRMVMmhqJX4nJESAcrO-10" value="&lt;span style=&quot;font-size: 18px;&quot;&gt;5&lt;/span&gt;" style="ellipse;whiteSpace=wrap;html=1;aspect=fixed;fillColor=#dae8fc;strokeColor=#6c8ebf;" vertex="1" parent="1">
          <mxGeometry x="690" y="340" width="50" height="50" as="geometry" />
        </mxCell>
        <mxCell id="XJRMVMmhqJX4nJESAcrO-11" style="edgeStyle=orthogonalEdgeStyle;rounded=0;orthogonalLoop=1;jettySize=auto;html=1;exitX=0.5;exitY=0;exitDx=0;exitDy=0;entryX=0.5;entryY=1;entryDx=0;entryDy=0;endArrow=none;endFill=0;" edge="1" parent="1" source="XJRMVMmhqJX4nJESAcrO-12" target="XJRMVMmhqJX4nJESAcrO-7">
          <mxGeometry relative="1" as="geometry" />
        </mxCell>
        <mxCell id="XJRMVMmhqJX4nJESAcrO-12" value="&lt;span style=&quot;font-size: 18px;&quot;&gt;7&lt;/span&gt;" style="ellipse;whiteSpace=wrap;html=1;aspect=fixed;fillColor=#fff2cc;strokeColor=#d6b656;" vertex="1" parent="1">
          <mxGeometry x="570" y="450" width="50" height="50" as="geometry" />
        </mxCell>
        <mxCell id="XJRMVMmhqJX4nJESAcrO-13" style="rounded=0;orthogonalLoop=1;jettySize=auto;html=1;exitX=0;exitY=0;exitDx=0;exitDy=0;entryX=1;entryY=1;entryDx=0;entryDy=0;endArrow=none;endFill=0;" edge="1" parent="1" source="XJRMVMmhqJX4nJESAcrO-15" target="XJRMVMmhqJX4nJESAcrO-16">
          <mxGeometry relative="1" as="geometry" />
        </mxCell>
        <mxCell id="XJRMVMmhqJX4nJESAcrO-14" style="rounded=0;orthogonalLoop=1;jettySize=auto;html=1;exitX=0.5;exitY=0;exitDx=0;exitDy=0;entryX=0.5;entryY=1;entryDx=0;entryDy=0;endArrow=none;endFill=0;" edge="1" parent="1" source="XJRMVMmhqJX4nJESAcrO-15" target="XJRMVMmhqJX4nJESAcrO-23">
          <mxGeometry relative="1" as="geometry" />
        </mxCell>
        <mxCell id="XJRMVMmhqJX4nJESAcrO-15" value="&lt;span style=&quot;font-size: 18px;&quot;&gt;8&lt;/span&gt;" style="ellipse;whiteSpace=wrap;html=1;aspect=fixed;fillColor=#fff2cc;strokeColor=#d6b656;" vertex="1" parent="1">
          <mxGeometry x="890" y="440" width="50" height="50" as="geometry" />
        </mxCell>
        <mxCell id="XJRMVMmhqJX4nJESAcrO-16" value="&lt;span style=&quot;font-size: 18px;&quot;&gt;6&lt;/span&gt;" style="ellipse;whiteSpace=wrap;html=1;aspect=fixed;fillColor=#dae8fc;strokeColor=#6c8ebf;" vertex="1" parent="1">
          <mxGeometry x="820" y="360" width="50" height="50" as="geometry" />
        </mxCell>
        <mxCell id="XJRMVMmhqJX4nJESAcrO-17" value="&lt;font style=&quot;font-size: 20px;&quot;&gt;Data Graph&lt;/font&gt;" style="text;html=1;align=center;verticalAlign=middle;whiteSpace=wrap;rounded=0;" vertex="1" parent="1">
          <mxGeometry x="600" y="530" width="200" height="30" as="geometry" />
        </mxCell>
        <mxCell id="XJRMVMmhqJX4nJESAcrO-18" style="rounded=0;orthogonalLoop=1;jettySize=auto;html=1;exitX=1;exitY=0.5;exitDx=0;exitDy=0;entryX=0;entryY=0.5;entryDx=0;entryDy=0;endArrow=none;endFill=0;" edge="1" parent="1" source="XJRMVMmhqJX4nJESAcrO-19" target="XJRMVMmhqJX4nJESAcrO-22">
          <mxGeometry relative="1" as="geometry" />
        </mxCell>
        <mxCell id="XJRMVMmhqJX4nJESAcrO-19" value="&lt;font style=&quot;font-size: 18px;&quot;&gt;1&lt;/font&gt;" style="ellipse;whiteSpace=wrap;html=1;aspect=fixed;fillColor=#fff2cc;strokeColor=#d6b656;" vertex="1" parent="1">
          <mxGeometry x="550" y="190" width="50" height="50" as="geometry" />
        </mxCell>
        <mxCell id="XJRMVMmhqJX4nJESAcrO-20" style="rounded=0;orthogonalLoop=1;jettySize=auto;html=1;exitX=0;exitY=1;exitDx=0;exitDy=0;entryX=1;entryY=0;entryDx=0;entryDy=0;endArrow=none;endFill=0;" edge="1" parent="1" source="XJRMVMmhqJX4nJESAcrO-22" target="XJRMVMmhqJX4nJESAcrO-10">
          <mxGeometry relative="1" as="geometry" />
        </mxCell>
        <mxCell id="XJRMVMmhqJX4nJESAcrO-21" style="rounded=0;orthogonalLoop=1;jettySize=auto;html=1;exitX=1;exitY=0.5;exitDx=0;exitDy=0;entryX=0;entryY=0.5;entryDx=0;entryDy=0;endArrow=none;endFill=0;" edge="1" parent="1" source="XJRMVMmhqJX4nJESAcrO-22" target="XJRMVMmhqJX4nJESAcrO-23">
          <mxGeometry relative="1" as="geometry" />
        </mxCell>
        <mxCell id="XJRMVMmhqJX4nJESAcrO-22" value="&lt;font style=&quot;font-size: 18px;&quot;&gt;2&lt;/font&gt;" style="ellipse;whiteSpace=wrap;html=1;aspect=fixed;fillColor=#f8cecc;strokeColor=#b85450;" vertex="1" parent="1">
          <mxGeometry x="750" y="220" width="50" height="50" as="geometry" />
        </mxCell>
        <mxCell id="XJRMVMmhqJX4nJESAcrO-23" value="&lt;span style=&quot;font-size: 18px;&quot;&gt;9&lt;/span&gt;" style="ellipse;whiteSpace=wrap;html=1;aspect=fixed;fillColor=#dae8fc;strokeColor=#6c8ebf;" vertex="1" parent="1">
          <mxGeometry x="910" y="260" width="50" height="50" as="geometry" />
        </mxCell>
        <mxCell id="XJRMVMmhqJX4nJESAcrO-29" style="rounded=0;orthogonalLoop=1;jettySize=auto;html=1;exitX=0;exitY=1;exitDx=0;exitDy=0;entryX=1;entryY=0;entryDx=0;entryDy=0;" edge="1" parent="1" source="XJRMVMmhqJX4nJESAcrO-24" target="XJRMVMmhqJX4nJESAcrO-25">
          <mxGeometry relative="1" as="geometry" />
        </mxCell>
        <mxCell id="XJRMVMmhqJX4nJESAcrO-31" style="rounded=0;orthogonalLoop=1;jettySize=auto;html=1;exitX=1;exitY=1;exitDx=0;exitDy=0;entryX=0.5;entryY=0;entryDx=0;entryDy=0;" edge="1" parent="1" source="XJRMVMmhqJX4nJESAcrO-24" target="XJRMVMmhqJX4nJESAcrO-30">
          <mxGeometry relative="1" as="geometry" />
        </mxCell>
        <mxCell id="XJRMVMmhqJX4nJESAcrO-32" style="rounded=0;orthogonalLoop=1;jettySize=auto;html=1;exitX=0;exitY=1;exitDx=0;exitDy=0;entryX=0.5;entryY=0;entryDx=0;entryDy=0;" edge="1" parent="1" source="XJRMVMmhqJX4nJESAcrO-24" target="XJRMVMmhqJX4nJESAcrO-27">
          <mxGeometry relative="1" as="geometry" />
        </mxCell>
        <mxCell id="XJRMVMmhqJX4nJESAcrO-34" style="rounded=0;orthogonalLoop=1;jettySize=auto;html=1;exitX=1;exitY=1;exitDx=0;exitDy=0;entryX=0;entryY=0;entryDx=0;entryDy=0;" edge="1" parent="1" source="XJRMVMmhqJX4nJESAcrO-24" target="XJRMVMmhqJX4nJESAcrO-33">
          <mxGeometry relative="1" as="geometry" />
        </mxCell>
        <mxCell id="XJRMVMmhqJX4nJESAcrO-24" value="&lt;span style=&quot;font-size: 18px;&quot;&gt;3&lt;/span&gt;" style="ellipse;whiteSpace=wrap;html=1;aspect=fixed;fillColor=#f5f5f5;strokeColor=#666666;fontColor=#333333;" vertex="1" parent="1">
          <mxGeometry x="1314" y="160" width="50" height="50" as="geometry" />
        </mxCell>
        <mxCell id="XJRMVMmhqJX4nJESAcrO-36" style="rounded=0;orthogonalLoop=1;jettySize=auto;html=1;exitX=0;exitY=1;exitDx=0;exitDy=0;entryX=1;entryY=0;entryDx=0;entryDy=0;" edge="1" parent="1" source="XJRMVMmhqJX4nJESAcrO-25" target="XJRMVMmhqJX4nJESAcrO-35">
          <mxGeometry relative="1" as="geometry" />
        </mxCell>
        <mxCell id="XJRMVMmhqJX4nJESAcrO-38" style="rounded=0;orthogonalLoop=1;jettySize=auto;html=1;exitX=0.5;exitY=1;exitDx=0;exitDy=0;entryX=0.5;entryY=0;entryDx=0;entryDy=0;" edge="1" parent="1" source="XJRMVMmhqJX4nJESAcrO-25" target="XJRMVMmhqJX4nJESAcrO-37">
          <mxGeometry relative="1" as="geometry" />
        </mxCell>
        <mxCell id="XJRMVMmhqJX4nJESAcrO-25" value="&lt;span style=&quot;font-size: 18px;&quot;&gt;4&lt;/span&gt;" style="ellipse;whiteSpace=wrap;html=1;aspect=fixed;" vertex="1" parent="1">
          <mxGeometry x="1093" y="282" width="50" height="50" as="geometry" />
        </mxCell>
        <mxCell id="XJRMVMmhqJX4nJESAcrO-40" style="rounded=0;orthogonalLoop=1;jettySize=auto;html=1;exitX=0;exitY=1;exitDx=0;exitDy=0;entryX=0.5;entryY=0;entryDx=0;entryDy=0;" edge="1" parent="1" source="XJRMVMmhqJX4nJESAcrO-27" target="XJRMVMmhqJX4nJESAcrO-39">
          <mxGeometry relative="1" as="geometry" />
        </mxCell>
        <mxCell id="XJRMVMmhqJX4nJESAcrO-42" style="rounded=0;orthogonalLoop=1;jettySize=auto;html=1;exitX=1;exitY=1;exitDx=0;exitDy=0;entryX=0.5;entryY=0;entryDx=0;entryDy=0;" edge="1" parent="1" source="XJRMVMmhqJX4nJESAcrO-27" target="XJRMVMmhqJX4nJESAcrO-41">
          <mxGeometry relative="1" as="geometry" />
        </mxCell>
        <mxCell id="XJRMVMmhqJX4nJESAcrO-27" value="&lt;span style=&quot;font-size: 18px;&quot;&gt;5&lt;/span&gt;" style="ellipse;whiteSpace=wrap;html=1;aspect=fixed;" vertex="1" parent="1">
          <mxGeometry x="1226" y="282" width="50" height="50" as="geometry" />
        </mxCell>
        <mxCell id="XJRMVMmhqJX4nJESAcrO-44" style="edgeStyle=orthogonalEdgeStyle;rounded=0;orthogonalLoop=1;jettySize=auto;html=1;exitX=0.5;exitY=1;exitDx=0;exitDy=0;entryX=0.5;entryY=0;entryDx=0;entryDy=0;" edge="1" parent="1" source="XJRMVMmhqJX4nJESAcrO-30" target="XJRMVMmhqJX4nJESAcrO-43">
          <mxGeometry relative="1" as="geometry" />
        </mxCell>
        <mxCell id="XJRMVMmhqJX4nJESAcrO-30" value="&lt;font style=&quot;font-size: 18px;&quot;&gt;1&lt;/font&gt;" style="ellipse;whiteSpace=wrap;html=1;aspect=fixed;" vertex="1" parent="1">
          <mxGeometry x="1366" y="282" width="50" height="50" as="geometry" />
        </mxCell>
        <mxCell id="XJRMVMmhqJX4nJESAcrO-50" style="edgeStyle=orthogonalEdgeStyle;rounded=0;orthogonalLoop=1;jettySize=auto;html=1;exitX=0.5;exitY=1;exitDx=0;exitDy=0;entryX=0.5;entryY=0;entryDx=0;entryDy=0;" edge="1" parent="1" source="XJRMVMmhqJX4nJESAcrO-33" target="XJRMVMmhqJX4nJESAcrO-49">
          <mxGeometry relative="1" as="geometry" />
        </mxCell>
        <mxCell id="XJRMVMmhqJX4nJESAcrO-33" value="&lt;span style=&quot;font-size: 18px;&quot;&gt;6&lt;/span&gt;" style="ellipse;whiteSpace=wrap;html=1;aspect=fixed;" vertex="1" parent="1">
          <mxGeometry x="1470" y="282" width="50" height="50" as="geometry" />
        </mxCell>
        <mxCell id="XJRMVMmhqJX4nJESAcrO-35" value="&lt;span style=&quot;font-size: 18px;&quot;&gt;7&lt;/span&gt;" style="ellipse;whiteSpace=wrap;html=1;aspect=fixed;" vertex="1" parent="1">
          <mxGeometry x="1014" y="380" width="50" height="50" as="geometry" />
        </mxCell>
        <mxCell id="XJRMVMmhqJX4nJESAcrO-37" value="&lt;span style=&quot;font-size: 18px;&quot;&gt;5&lt;/span&gt;" style="ellipse;whiteSpace=wrap;html=1;aspect=fixed;" vertex="1" parent="1">
          <mxGeometry x="1085" y="380" width="50" height="50" as="geometry" />
        </mxCell>
        <mxCell id="XJRMVMmhqJX4nJESAcrO-39" value="&lt;span style=&quot;font-size: 18px;&quot;&gt;9&lt;/span&gt;" style="ellipse;whiteSpace=wrap;html=1;aspect=fixed;" vertex="1" parent="1">
          <mxGeometry x="1196" y="380" width="50" height="50" as="geometry" />
        </mxCell>
        <mxCell id="XJRMVMmhqJX4nJESAcrO-41" value="&lt;font style=&quot;font-size: 18px;&quot;&gt;2&lt;/font&gt;" style="ellipse;whiteSpace=wrap;html=1;aspect=fixed;" vertex="1" parent="1">
          <mxGeometry x="1260" y="380" width="50" height="50" as="geometry" />
        </mxCell>
        <mxCell id="XJRMVMmhqJX4nJESAcrO-43" value="&lt;font style=&quot;font-size: 18px;&quot;&gt;2&lt;/font&gt;" style="ellipse;whiteSpace=wrap;html=1;aspect=fixed;" vertex="1" parent="1">
          <mxGeometry x="1366" y="380" width="50" height="50" as="geometry" />
        </mxCell>
        <mxCell id="XJRMVMmhqJX4nJESAcrO-45" value="&lt;font style=&quot;font-size: 30px;&quot;&gt;...&lt;/font&gt;" style="text;html=1;align=center;verticalAlign=middle;resizable=0;points=[];autosize=1;strokeColor=none;fillColor=none;" vertex="1" parent="1">
          <mxGeometry x="1054" y="440" width="50" height="50" as="geometry" />
        </mxCell>
        <mxCell id="XJRMVMmhqJX4nJESAcrO-46" value="&lt;font style=&quot;font-size: 30px;&quot;&gt;...&lt;/font&gt;" style="text;html=1;align=center;verticalAlign=middle;resizable=0;points=[];autosize=1;strokeColor=none;fillColor=none;" vertex="1" parent="1">
          <mxGeometry x="1230" y="440" width="50" height="50" as="geometry" />
        </mxCell>
        <mxCell id="XJRMVMmhqJX4nJESAcrO-47" value="&lt;font style=&quot;font-size: 30px;&quot;&gt;...&lt;/font&gt;" style="text;html=1;align=center;verticalAlign=middle;resizable=0;points=[];autosize=1;strokeColor=none;fillColor=none;" vertex="1" parent="1">
          <mxGeometry x="1364" y="440" width="50" height="50" as="geometry" />
        </mxCell>
        <mxCell id="XJRMVMmhqJX4nJESAcrO-48" value="&lt;font style=&quot;font-size: 30px;&quot;&gt;...&lt;/font&gt;" style="text;html=1;align=center;verticalAlign=middle;resizable=0;points=[];autosize=1;strokeColor=none;fillColor=none;" vertex="1" parent="1">
          <mxGeometry x="1460" y="440" width="50" height="50" as="geometry" />
        </mxCell>
        <mxCell id="XJRMVMmhqJX4nJESAcrO-57" value="" style="shape=image;verticalLabelPosition=bottom;labelBackgroundColor=default;verticalAlign=top;aspect=fixed;imageAspect=0;image=data:image/png,iVBORw0KGgoAAAANSUhEUgAAA0IAAAF/CAIAAADrR+55AAAgAElEQVR4AeydB1gUx9+A9w6OKt1ewV5jL1iIigVrLIkNe7BGBQsoGjW22CL22CMSKYrSQQTpVapUkXJ0qceV/NMjfsT5MjfuHcdSpP54fHzm5mZ3Z9/57ey7s7tz1Hv4AwJAAAgAASAABIAAEGiBBKgWWGeoMhAAAkAACAABIAAEgMB70DgIAiAABIAAEAACQAAItEgCoHEtstmg0kAACAABIAAEgAAQAI2DGAACQAAIAAEgAASAQIskABrXIpsNKg0EgAAQAAJAAAgAAdA4iAEgAASAABAAAkAACLRIAqBxLbLZoNJAAAgAASAABIAAEACNgxgAAkAACAABIAAEgECLJNAAGheQfhH+AQEgAASAABAAAkAACNSHQB1EsgE07ohHj8Me3eEfEAACQAAIAAEgAASAQJ0JNI3GWTirmzurwT8gAASAABAAAkAACACBOhMAjQObBAJAAAgAASAABIBAiyQAGtcim63O2g4LAgEgAASAABAAAq2GAGgcaBwQAAJAAAgAASAABFokAdC4FtlsreYyAnYECAABIAAEgAAQqDMB0DjQOCAABIBA0xA46tnroFvHOnffsCAQAAJAADSuabpviDwgAAQ+BYGDrh3P+469G7bkYdQGu+hN1pErL/kbfOvetQG3ZeGscc5n1O3Qhae8B5vX6aX7ywFTn8bvfpn9IKss7GbIvAasG6wKCACBtkYANA40DggAgRZPwMJF81KAQWjWrSJBiuj3kl//5P32J/+3vwS//lnxyx+lJaI3oZm3zvuOrZt10c4KdtEm/F8L/vcnL78i/mbI/Nqu08JZ85c/Sn//S/TPu78qKysfRBrXdg20+sBHIAAE2jIB0LgWfwJry+EL+w4EzJ3Vv/PUi8tz/OfdP7K7s7/+/v156qn9zlr1gXbQpcPvf4nwhuLznxz36lurFVo4a+LF379/DxpXK3pQGAgAARoBsj9hmG6AX3GA6X9pzQAfgQAQqAMBS9f2P4V/Jfi1kGHnVVn57lHstjpsCC9yynvwu0qxL2aWBn//fAj+lkkCNI4JJSgDBIAAQwIMez+yGGgcDOABASDQ9AQsXTvYRZsIf3tbWVmJe6i///mj4te8vIqYzNLgzNLgfH688Peif979jQqUiTKPePRg2DlKLbbfRTubF1lZ+e79+/d//v1bwJuLtV0haJxUsJAJBIBA3Qjg3o95AjSu6U9gdWtsWAoItBoCFs4ad8OWFgtfY4d79+6f0l8yQjJv/vxy7QW/8ce9+h736nvJf/Kj2G1ROTbl/8v+658/HGO/qT+Bq4GG0TkPU4u8g9KvnPMdU9sn20Dj6t8EsAYgAAQwAeb2hkuCxoHGAQEg0MQEzvgMTyxw/efdX6hjelf5Ty4vxjpy1WGP7rh3w4nvPPXuRyz3f2N1xKMnzqxHQv2oZ68zPsMPu3erw0pA4+oADRYBAkCgOgJYzpgnQOOa+ARWXVtCPhBoIwT2u2g5xu369U8+7rYq/pd7I3jOfpdqX1+wcFb/cPdTnYbooGvHw+7dD3v8+++QWxf02O5RT90fg41sXq6xjlh5LdDw6Af5O+Cic9i9GyqJ/7d0bU9bIe3jEY+e14NmPYhcZR256lrgjMPu3UHjaIjgIxAAAvUhgLtB5gnQONA4IAAEmpLA995DEgqc8e3U9+/fO7/aa+GsWYeuMDD9ctkvWRW/5lb8mptQ4HIpwMAr+WiR8P9nLfnfH+Wi34vflPhfCzR8FLv1rSAJlcT/uyYeOOjWSep2z/mOjsy+X/4LV/R7yf/+4H1YVUnZL9zI7AdkbwtvqkqlB5lAAAgwJED2JwzToHFNeQJj2K5QDAi0YgI/Bs8W/FqAOyz+r/l1nkYkKudnfGeW/2t+Li+GfBH1/fv3lZWVCQUux736uiSY/0aM/6Gt+7z+/pB7FwnUGk/idv32lwDXUEYCNE6CHnSwQAAI1IKAjO6luq9A42rBF3ooIAAEGpbAfhcth5gtZPfknXqizpsgNQ6v813lu7/++f2vf/6orKwU/lbkELPV3FmNocYddOv0LOU4ecO3srLyXeU/f7/7E833i7eCEqBxdW47WBAIAAFzZzVal8LkI2gcaBwQAAJNRuCQW+cXaefJrupSgEGde3OaxlVWVv7yR2la8YvgjGshmTfflPjH5tof8+xj7qxmHbkyqdAtvcT/r39+w1unjcYdcNG2izbh/ZqLClRWVv75968F/ITEQrcI7k/ROQ8zy0L+90c5Xhym/61zw8GCQAAIIAJkf8IwDRrXZCcwiFogAASOePR8STxe9ve7vw65dZaK5cSz/pcDPpf8d853FC5P0zjhb2+9U04c8+qNChzx6HH+3ylF/j3k97toHXTteNCtE+9//29p79+/p2ncOd9Rr4t98EN7f/79W3DG9Uv+BgdcddBKjnv1c361j+xqYTQOtwUkgAAQqAMBsj9hmAaNA40DAkCgyQh856mbUOCMe6v//VFu4awhte97HLcjh/eS9i+7PDIs6xYuT2rcX//8Hp519zvP/3c4XIaW4P0vG2+d1Dh0t/f3v4T428hsa8nJgS2ctXABGI2jsYWPQAAI1JYA2Z8wTIPGNdkJrLatC+WBQOsj8J2nXmKBK+6thL8VVadxPq9P42I4UVn5LqM0CGMhNa78F+79iBX4q+oS1WncUU/dcO5dvKFf/6w45T1IciUw4YgkE8gBAkCgzgRwn8M8ARoHGgcEgECTETjqqRuX74g7rN/+EtZe4wJxj0lqXA4v6vyLsfir6hLVadzp58O4ZWG4YsmFHlLXABonFQtkAgEgUDcCuM9hngCNa7ITWN3aGJYCAq2JwGH37iGZN3GHVVlZ+Z2HrtQdrG40Lr1UusZllYWe8h4sdVVkZnUa98OLceW/cHHFfFJPkUvhNGgcRgEJIAAE6k8A9znME6BxoHFAAAg0GQFL1w7uSYfwawTv37+3iVxTTVeobuGsZeGsZeU3Mbs8EvVxlZXv0ksDcHlyNK6eGmflpy/6vQT3pC4JFngrZAI0jqQBaSAABOpJAPc5zBOgcU12AqtnY8PiQKBVEFC/H7Hiz7/Fs34kFbpbuMj6CYcLfuOzyyPEGldSrcZ9X4/RuA8aV4x7UrdES6m0QeOkYoFMIAAE6kYA9znME6BxoHFAAAg0JYGL/pPyK+Jwn/XXP79fD5olowe88IKmcf648MejcWHfew/BX1WXqP6m6tiyXzJxrcKybktdA2icVCyQCQSAQN0I4D6HeQI0rilPYHVrZlgKCLQmAkc8egZlXCN/NSut2O/750Or28cfPta4NyXSNY5bFva9d7UrwSuvTuNOPx+aWRqMe9JiYaqla3u8FE6AxmEUkAACQKD+BHCfwzwBGgcaBwSAQNMSUL8XvrRE9AZ3W3/983tsngOeqpfWM154MYG8qSpL46p3QbzO6jTuqEfP0MwbuErv3v39NH43XgonQOMwCkgAASBQfwK4z2GeAI1r2hMYbB0IAAG1Q26dA95c/PPvX1HPVVlZ+dc/v+fwohzjdh716Il7RgtnjXO+oyOz7+NZeSsr31WrceVhp+uhcRbOGg+jNvz+lwh3pqLfSx3jdh5w+f+fcEC1uhpoiAvA9L+4pSABBIBA3QiQ/QnDNGgcnESBABBoegLHvfq9KfGrrHyHey70I/S//SnI4b2Mz3+SUOBUwH/15z+/vat8h99slalx4aefD6uxJ61uNM7cWe2Mz/CUt55kff7+549CfoJf2g+PYrY6xu1MKnT7591fuABoXI20oQAQAAKyCZD9CcM0aFzTn8BkNyp8CwTaCIFzPqOyykL/fvcnw87r/fv3f/z9S3SuLeZDvuLALa+vxpk7q1lHrCwRpZNyKbtu8JuquC0gAQSAQB0IyO5hpH4LGgcaBwSAQHMhcNyrX1T2z7xfc/9597fUDgtlvqt8978/eQX8V89TT5G/c0rXOJ/PauxGZYzGmTur7XfRso/ZXMCPp426oWpUVlYKfntL1hM0rkbgUAAIAAEZBMj+hGEaNK65nMBktCt8BQTaDgELF03riJUR3J+4ZWG8/+X8/pfon3d/v6t89/c/f/z6J6/slyxuWXhMrr1rgsU539E0LM9TT+XyovP58fn8+JfZNieeDaAVkPyY8tYznx+H/j2J33XQrSOtjIWzxo/BRmFZd3LKX1b8mvfbn/w//vrllz/KioQpCQXOdjGb8OL5/LibIfNoi8NHIAAEgABzAgzVjSwGGgcaBwSAQLMjcMitk5XfROvIlU/id7klHnBPOuSSYPEodttP4V9Z+U067N7N3Fldsmc86zPiWtDM60GzrgfNuuA3QeoUIbSlLgVMuf7vIv/+O+U9qLpfdLV07XA5wODBy9WOcd88jTe1j9l8K2TBMc/e5s5qePHrQTPJFzJoG4KPQAAIAIEaCZB+xjANGtfsTmA1NjMUAAJAAAgAASAABFofAYbqRhYDjQONAwJAAAgAASAABIBA0xMg/YxhGjSu6Zut9V1PwB4BASAABIAAEAACtSXAUN3IYqBxoHFAAAgAASAABIAAEGh6AqSfMUyDxjV9s9XW1qE8EAACQAAIAAEg0PoIMFQ3shhoHGgcEAACQAAIAAEgAASangDpZwzToHFN32yt73oC9ggIAAEgAASAABCoLQGG6kYWA40DjQMCQAAIAAEgAASAQNMTIP2MYRo0rumbrba2DuWBABAAAkAACACB1keAobqRxUDjQOOAABAAAkAACAABIND0BEg/Y5gGjWv6Zmt91xOwR0AACAABIAAEgEBtCTBUN7IYaBxoHBAAAkAACAABIAAEmp4A6WcM06BxTd9stbV1KA8EgAAQAAJAAAi0PgIM1Y0sBhoHGgcEgAAQAAJAAAgAgaYnQPoZwzRoXNM3W+u7noA9AgJAAAgAASAABGpLgKG6kcVA40DjgAAQAAJAAAgAASDQ9ARIP2OYBo1r+marra1DeSAABIAAEAACQKD1EWCobmSxZqFxe53U4B8QQAT2OdVCrPc5qe2D4AEC/xFA8cC8Z4eDDghgArXtefCCkAACtQoe2R0U6WcM081C41ba9lvx8DP4BwRWPBy23l53j5O67EDH35o91Vhnr7f84TBABwSWPxy26VGXvYwvA3Y/1Vj+cBBwAwIfCAxbb98Ldyw1JnY+0V75cACgAwIfCAzZ8rgWPY/s6GKobmSxZqFxY25v2OV5y9LnPvxr4wR2eFyf/tMX2x+3lx3o+FuTR53n2izf7n69jXOD3bf0uW/85Py8B5+bPdXE4SE7scmh89jbmwEdELD0ub/V7drEOwtkBwz57UYHvZk2e/Y+uwP0gMAKx1Nf2OibMu55yECSTJN+xjDdLDRumrVZQn62CP7aPIH4vPRZ1su3Pe4gGdxSc0wcuqxx3BrBfd3myQEA0f0Y/y9tZzPXuK8duky6txvAAQGRSBSYkTT53lKpnYzUzK8f9fnG4zK3+C3QAwJ3Xnot/tkANA40Do6FfwmAxkEc1JkAaFyd0cGCoHEQA3UmABr37/PsMBpX5wBqZQuCxrWyBm3M3QGNa0zarWxboHGtrEEbc3dA40DjGjPemvu2QOOaews14/qBxjXjxmnuVQONa+4t1IzrBxrXGBrH5/PLy8vLysqEQmEzDgaRUCisqKgoKyurqKiosarC//4EAgFKSu6aUCgsKysrLy/n8/mS39Y/RyAQNCzYZqhxfD4fMayxRerPs55rQG1RUVFR43r+ix2hjOBp8Mal1UogECCwAoGA9lXdPjY3jRMKhSh4eDxeMw8eoVDI4/HKyspq7Chw5AiFNQRPwzYuLSQw2IYKnmaocahFeDwebd+b20fcUTBpCxQ/gg9/1R0UDd64NGLoJFteXk7Lr/NH0Li6aByfz09PTw9j8BcTE1NUVOTj47N9+3YTE5OysrI6N1UjLPj27ds7d+4YGxvb2tqWlpZWt0U+n5+SkhIcHOzn5+fp6enq6urt7R0eHp6amkpbqqKiYuPGjd98842vr291a6tPfmRk5N69e1evXs3lcuuzHrxs42hcQkJCGIO/uLi48vJyPz8/Y2Pj/fv3Z2Rk4Ho2z8S+ffuMjY2tra1lVK+8vPzVq1fBwcG+vr7u7u6urq4+Pj4RERFv3ryh2UZERMSePXvWrl3bUI1Lq1VUVJSxsfGOHTtSUlJoX9XtYyNoHI/HS05ODmPwFx0dLRAI3N3djY2Nz58/n5+fX7edapyl8vPzv/vuu7Vr17q5ucneYkRERFBQEAoeNzc3Hx+fly9fpqen0/wvMjISNW5qaqrsFdbt25CQEGNj4+++++7Nmzd1WwNtqUbQuLKysri4uDAGf6mpqTwe79q1a6tXrz527Bitqs3tY0pKyoEDB4yNjaOiomTUraioKDY2NigoyMfHx83NzdXV1dfXNzo6Oisri3bliRr3+PHj6enpMlZY568ePny4fv367du313kNtAVB4+qicW/fvt2zZ48Sg79hw4b5+PjcunWrc+fO6urqxcXFtAZoVh9zcnK2bNlCUZSFhUXVPlZXt6KiolWrVrFYLIr4U1dXnz59+vXr17OysvCC5eXlKioqXbp0uX37Ns5swISTk1P//v1ZLFZiYmKDrLZxNG7mzJkMYkdp7NixKSkp9+7doyhq6NChMTExDbKPn24lAwcOpChq165dMjaRlJQ0ffp0InAoFovVvn37efPmWVtbkwfI06dP+/bty+FwGqpxabVyd3enKKpbt25hYWG0r+r2sRE0LjMzc9myZUyCp2/fvnw+/8KFCxRFLViw4BOdkOoGSnKpjIyMyZMnczicH374QfJbMkdbW5sMHoqiOnbsuGjRokePHpHB4+LiQlFU9+7dqy4GyMUbKm1vb09R1MSJE2WrA/PNNYLGJSQkjB07lknwrFu3Lj093djYmM1m6+vrM9+LJikZGhr62WefURQl+xrA19d3xIgRZPCw2ezu3bsbGxu7urqWlJTgyqPGNTAw+ERdrrm5ubKycpcuXfAW65kAjauLxpWUlFhZWekTfyNHjpT/8Ne3b18iW3/ZsmXh4eFI49q1a0d2NPVsuU+xOEONe/v27bJlyyiK6tev34oVKzZu3GhsbDxx4kQOh9OhQ4fTp08XFRWh6jWOxlEUlZCQ0CBAGkfjtm3bRgZJ//79FRQUKIoaMWIEmb9mzZqMjIwWpHH9+/evUeMSExMNDAwoiho0aNC6des2bNiwfPnyESNGKCkpdenS5f79+7gdkcYpKCiAxmEmOTk5+/fvJ4Nk0KBBFEUpKSkNGjSIzP/iiy9apcapqanJy8sPGzYMBc+yZcuGDBlCUZSurq61tTW+TdY4Gqevr9+CNC4tLW316tVkkOjq6lIUpaKiMmrUKDL/yJEj2dnZSOPGjx+Pw695JhhqnI+Pz7BhwyiKmjp16vr16zds2LBkyZIBAwaw2exhw4Y9f/4cD+g2jsZ17ty5oXiCxtVF4/h8flpaWgjx5+DgoKGhoa6ufvjwYSI7JCoq6u3bt0jjVFRUWpnGrV69OikpqaCgIDs7OygoaOXKlRRFTZkyJTw8HAUo0riuXbveuXOnoUKWXA8ajWtxGhcfH08GyfHjxzt16kRRlJ2dHZkfExNTXl7egjSuX79+zDVuy5YteXl5BQUFmZmZz549MzQ0ZLPZo0aNwu2LNS4pKQlnNmCiJY7G8Xi8xMREMkguXrxIUVSPHj2srKzI/MjIyBakcenp6ZMmTWIyGqempqaiomJqaoqCJz093dvbe/jw4Ww2e8GCBdnZ/z/9Z+No3IQJE16+fNkgMdkIo3FlZWUxMTFkkJiamrLZ7N69ez99+pTMT05O5vF4rVXj7t27h4InLS3NxsZm9OjRqNfCow+No3EdO3ZskMgRiUSgcXXROEn6r1690tHR0dLSunv3ruS3SOOUlJRamcaZmJjk5eWh/RUIBJ6ennJycn369HFxcUGZoHGSwSCZ8+DBgx49elAUFRcXJ/ltC9K4Pn36MNe43bvFM98KBIITJ05oaGjIy8vjJ3+RxikqKoLGSUYFznFzc0Pj4vigw1+1LI1Dw/k13lRVU1NTVVW1tLTEuykSiU6cOEFR1Lhx47BUgcaRfKpLnzt3Tk5ObsiQIa9fS5nAvKVoXEhICJObqng0ztHREb8MUVxcbGpqSlHUzJkz8bmscTSuQ4cO1bVLbfNB4xpP4xQVFYuKin7++eclS5bo6+svXrzYxsYGXwGIRKLMzEwrK6tNmzb5+flxuVxLS8spU6bo6+uTtynLysouXrw4b9688ePHz5w5c9++fbGxsfhWAmr+pKSk06dPz5s3b/To0VOnTt2+ffuzZ8+kvl2RnZ198eLFWbNmjR49eu7cucePH0cjarKfjcM3VUmNEwqF/v7+bDZ7wIABHh4eqCbl5eWqqqpdu3aVtNuSkpKnT5+uXbtWX19/0qRJ69atc3V1pe2ISCQSCAQJCQmHDx9Gu2xkZHT8+HHc6UgdjQsODjY1NV2zZs3z58/x4crwwGicm6q0yjDUOD8/vzt37ixatEhfX7/qdoC9vT2+CyASiQoKCszMzLZu3ert7Z2UlGRubj75w9/Nmzfx5tLS0s6cOTNnzpyxY8fOmDHj22+/lRTHlJSUI0eOzJ07d9y4cdOnT9+1a1d1j469ffv2xIkTM2bMGDduHArmbt261U3jRCLRmTNntLS0qgZa8E7J0LjS0tKffvrpyy+/HD9+vIGBwbZt2/z8/GjPKaPgCQ4O3r9//6xZs8aMGTNv3rwffvgBv9AgdTTO29v766+/3rx5M45hTK/GRCM8GydZB4YaFxsbe+HChdmzZ+vr669Zs8bd3R3rskgkysjI2L9/v7m5eWRkZHR09NatW8eOHTtt2rQbN27gLaalpR08eHD69Onjxo2bP3/+999///r1a/KA5fP5YWFhlpaWiLahoeH+/fvDwsKkHoNJSUmHDx+eOnXquHHjlixZcvHixXHjxjEcjZPUuB9++IGiKH19/fj4eFRhGRpXXFx88+bNpUuXTpgwYerUqaamprGxsXg3yURAQICZmZmhoeGECROWLFly7do1/KYIOtOTo3EVFRXPnj3buHHj9u3bX758SZIh11lduhFG4yQ3zUTjxo0bl5mZ+f3338+aNWvSpEkbNmwIDQ0lVxUWFmZhYbFp06bCwsLIyMivv/56woQJn3/++bNnz9CxLBAIXr16ZWFhMW3atAkTJixcuPDs2bOYJF5VYGCgmZkZCrC5c+cePXo0KSlJavAkJiaamZlNmjRpwoQJa9asOXXqFHoqV/azcVI1rqysbN++fRRFzZ8/H1dJhsZlZmZeunRpwYIFo0ePNjQ0PHDgQHR0NN4FnCgrK/Py8tq2bdv06dPHjh27dOnSO3fuYE1Ez8a1b98elxcIBHfu3DExMVm9enUdHmMFjWs8jeNwODNnzmSz2ZwPf2w2m8Vi7d+/H7/dGRsbO3v2bIqiLC0tBw4cKC8vz+FwtLW1z5w5IxL9OxtIVFQUepoBfcXhcFgslqKi4tWrV/HJz9HRsW/fvhRFycnJocf1WCyWqqrqkSNHCgsLceciFAqr3vmaNm0am82Wk5PDVUJPgDLUuK+//jovLw+9+V9SUnLw4EEWi7VixQociNVpXE5Ozvr16+U+/Cl8+JOTk1NQUNi8eTPptRUVFT/88IOKigqLxUK7LC8vz2KxlJWVHRwcRCIRTeOEQmFcXNysWbOqXnpYsmQJ+bIFPmBkJ5qtxuno6IwaNYpsdw6Hs3v3btzNZWRk6OjoyMvLb9u2bcSIEbikr68vmnjCy8tryJAhiKSCggIKnk6dOl29ehWf0d3c3BQUFFgsFg4eiqLYbPbZs2fxhlAoxsTE9OrVC4UZCh78yovsVxzws3FmZmb45f+8vLwVK1bIy8tv3LgRNxDSOCUlJXI0TigUJiUlzZkzB8U22hE2m62mpoaudlCEC4XC3NxcCwsLNTU1dMQpKCig4Onfvz/q7mkaJxQKX7582bt3b4qi5s2bh49KXJ8aE81W40aMGKGrq0seQRoaGlevXsWXdjExMbq6ut26ddu+fXu/fv1Qg3bp0uXJkycikYjP59vY2HTq1Il2GPbo0cPV1RUFRkVFxa1btzQ0NFAZeXl5OTk5iqI6dep07do10rD5fL6Hh8fgwYMlg6dWGoeDp6ysbMqUKUpKStu2bcMbkqpxQqEwJydnwoQJFEXJy8vjo0BeXv7ixYu4CxUKhYWFhVUvoqLgRzRQ8HTu3Bm9N03TOBQ8PXv2VFBQ2Lt3LxaCGmMGF2i2GterV6/hw4ejc4S8vDxFURwO5/Hjx/hUYmdn1717d4qi7O3ttbS0EK7BgweHhISgS6kHDx5oa2vjEx9aSY8ePZ49e4Z7lQMHDqAeCR3XKHg6dOjg7e2NEaFQfPDgQfv27VELcjgceXl5NpuNTlvMNY7P56NeMTo6evbs2RwO58cff8RTq0jVOIFA4OfnN27cOFoX2r179zt37uBlhUJhWlqasbExh8Mhdxm9LBIZGSkSiZDG6ejooF0TCAQPHz7s1asXm80+efIkub8M06Bxjadx6KUqExMTJycne3v7pUuXqqioKCoq+vv7o9bCGqempjZgwIDLly+7u7vfuXMHXSy+fPly4MCBcnJy48ePv3Tpkqen54MHD5YsWaKmpsZise7evYuOq9jY2Llz506ePPnYsWP37t2zsrKaNWuWsrKytra2p6cnOmyQ7syfP5/NZvfq1evAgQOenp5OTk5r1qxRU1Or8U1VPBo3d+5cZ2fnFy9eODg4mJiYqKmpzZgxIyAgAAdfeXl5u3btunXrdu/ePZzJ5/PNzMxYLFaPHj3279//4sULHx+f3bt3a2pqqqurHzp0CJ1deDze8ePHKYpSU1NbuHDhvXv3PD097969u3z5cgMDg4KCAprGCYXCzMxMExMTeXl5AwODiIgI3NHgTdeYaLYax2azdRdpJmIAACAASURBVHV1zczMnJ2dHz58OH36dATQyckJ7RTSOIqi2rdvP3r06CtXrjg7O1+9ehW5e0hIyIABA1RUVGbNmnXjxg1vb28bG5u5c+eqqKj06tXLxsYGncPy8vL69u07bdq0EydO3L179+zZsxMmTGCz2e3atQsKCsL0YmJiBgwYUPUwX//+/Q8dOuTm5mZra7tw4UJFRUXmo3FLly598eKFr6+vtbX14sWLO3XqNH/+/MzMTLwVqRqXmZlpbGwsLy/fs2fPc+fOBQcHe3p6mpiYoJE8a2trtCMFBQUHDhxQUFDQ1tZetWqVra2tt7f3jRs3li5dum3bNnSZQWqcUChMTEycOXOmvLz8+PHjc3JycDWYJ5qtxqHnnw4fPoyOoM8//5zD4QwZMgQPGiGNU1ZW1tTUnDp1qrW1taen55kzZ9BEbnZ2drq6uqqqqnPmzPnpp5+8vLyuX78+ffp0JSWlTp064fuYz549mzx58vz588+ePXv//v3Tp0+PHDmSzWaPGTMG9wlCoTA0NHTQoEEcDmfEiBGnTp3y8vKyt7efNWsWOv0zuamqpKRkbGzs6+v7/Pnzu3fvzp49u127dl999RW+ehSJRFI1Lj8/H8Xz4MGDz507FxgY6OLisnTpUkVFxXbt2tnY2KAeIzc3d9myZXJycu3bt1+3bp2dnZ27u/ulS5dmzZplamqK4oGmcRkZGWPHjlVQUFixYkXdpjhpthrHZrOHDh167NgxNze369evDx8+HPU8+CIZa1yXLl0MDQ1tbGzs7OwcHBzQFb6Tk5OysrKWltayZctsbGw8PT2rzmujR49GN3NxYDx58kRXV3fRokUXLly4e/fuwYMHBw8eLCcn179/f3xBxefzHRwcevXqJS8vP3LkyEuXLnl5ed28eRO941zjm6p4NO67775DJ50bN27MmDGjffv2u3btwrsjEokkNU4oFEZHRxsaGsrJyY0ZM+bmzZvh4eFPnz794osvlJWV+/Xr5+rqinqenJycL7/8Er0Du23btsePH3t6el64cMHIyMjc3BxdMCON09bWRmLq4+Mzbtw4RUXFTZs24WsJ5t0OPBv3r8M1yI9xMXk2TkFBgXwR79WrV9OmTWOxWHj+GKxx3bt39/HxIRuyqKho9erVHA7HwMCA7K2qnhCvmtqHxWINHjwYjdmijhIdQmgNMTExM2fOpCjq4MGD6JAoLi4+efKkgoLCgAEDnJ2d8SVsamrq0qVLmWscup5WUFBAF0+9evW6dOnSmzdv8DWWVI2LiopSUlLS0tI6efIkHg8QiURHjhxhsVi403/x4oWmpiaHw9m2bRuSNrQ7QqEQXRDTNK60tPTbb79VVFQcPny4i4sLrgOJscZ0s9U4dGMatxSXy9XV1VVSUjI1NUXnHqxx/fr1k7yE/eqrrxQVFZcvX56cnIwh5OTkoCGHlStX4umvnj9/Tg6IxsbG9ujRQ15efu/evWjB4uLitWvXcjgcXV3d58+f47VxuVw0DMxwNI4WPMOHD793715ubi5eIdI4ZWVlPBrH5/N/+umnzp07a2lpOTg44CbOzs7evHmzgoLC2LFjq24uCwQCDw+Pjh07ampqnjx5kpw6p7S0FH8kNe7Nmzdff/21iorK6NGjX716hetQq0Sz1bi+fft6eXnhS7jnz58PGzaMxWJZW1ujiEIaR1HU5MmTsduhfU9MTJw7dy4a5cWjtv/++nB8/IwZM+Tk5FatWoVKFhQUxMTE4ENVIBAEBgb27dtXWVn55s2b6PxUVlaGnriaNGmSv78/rlJSUtKQIUMYjsahoRc0nIZGYoYOHfr48WNSvqVq3Pnz51ksVseOHR89eoRb9u3btzNnzmSxWAYGBjk5OQKBwMrKSkdHR0VFhRyiE4lExcXFWClIjUtPT1+0aJG8vLyhoWF1TyDgzVWXaLYa16tXL/ISzt3dXU1NTVlZGc8hhTVu7NixtLkts7Kyqi63VFRUdu/eXVhYiPc9IyNjxIgRioqKO3bsQEFVUVFBPlQjFAp//vnnrl27UhSFH29Aw/AsFsvQ0JC0LldXV/RyFcPRODycVjX6hVrt6dOnb9++xZf9khpXWlqKbkCjGcRwz5OSkrJgwQKKojZv3ozC7/r162w2u2fPnrdv38ZnN6FQWF5ejgkgjdPS0hIIBNHR0QsWLKh6Anjp0qUZGRm4DpgVkwSMxjWexuno6JCvOAgEgq1btyooKEybNg01Fda47du3k6dSkUjk7++PbkN4eHiUfvzn4eHB4XC0tLRoU+wWFxfHxcUFBwcHBQVt3LiRoqhly5ahSEpOTp4wYYKCgsLhw4fxWU0kEtV2wpHPPvts586dlpaWe/fuXbNmzbBhwzp16mRiYhIdHY3Csby8XE1NjTYat2fPHoqiRo8eTZtIIjk5uUOHDtra2levXhUKhVu2bJGXl+/evbuMq1t8UzU+Pt7KykpdXb1nz553797Fxw+TY4As02w17rPPPqNNqrJ+/XqKor788ks0no80js1mb9y4EfcyaNdSUlLQqNuDBw/I2CkpKXn8+LGqquqoUaPInlogEBQWFqKpMl++fIkuNhYsWIDW5u/vj4birKysSHRVVo0eNGaocWPGjDE3N7e0tNy9e/fy5ct79+7ds2fPb775BnfQT58+7devn4qKCta4vLy8HTt2VL2YvHjxYlwM1QHdlZCTkwsPDy8pKUGPLRsZGeGHpWhVFYlEWOM8PDwOHz6sra09aNAgDw+PuvWkIpGo2WrcwoULyWu/jIyMFStWUBR19OhRdKQgjVNQUDh37hzpakKh0MbGpmvXrj179oyIiCCDp7S09NixY2pqajo6OmS8odvZUVFRgYGBnp6e6CR39OhRNC9X1XGqrq7eoUOHS5cukQMPGRkZaIyQyWgch8PR19e3sLCwtLQ0MzP76quvunfv3qtXL0tLS/zUrKTGlZeXT5o0iaKoWbNm4VtgKCqePHmCpixxc3PLzc394osvWCzWrFmz8FWTZPBgjfP29t6+fTua2dHT01OyJMOcZqtxU6ZMIXeBx+Pp6uoqKCjs378f5WONk5z3+8cff6QoqmfPnjExMbTgOX36NEVRRkZGuMnQHdjc3NyoqKjg4GAfHx80mc7p06fRgxzW1tZdu3bV1NSkjXGEhYUNHz6c+WjcokWLUM+za9euqvs8PXr0GDx48KlTp/A5V1LjuFwueiBqz5492MZEIhGPx7ty5YqSktKQIUPi4uIEAgF6oGXVqlX4eoakh9JI4zQ1NTMzMzdu3KikpDR9+vTqniKVXFwyBzSu8TROW1ub1DiRSGRhYaGiojJ27FjUMFjjyMeV0Fc3btzo3LkzUrFVH/8tWrSIzWZraGjY29ujwm/fvrWxsVmzZs306dPHjx8/adIk9ArhnDlzCgoKhEJhUFCQiopKz549HR0dyZNWbTUOv+IgFArz8vKePHmir6+vrKy8e/dudGkiVeMmTpzIZrMXLVpE9uMikSg3Nxd9dejQoZKSEn19ffTkqWTU4hyscUeOHOnQoUPVpduYMWNknLnxgtUlWpDGoSdzFy5ciE6QSOM4HM7Fixdpe2dtbU1RlKamppGR0cexs2r27NnKysp9+/bFA3hFRUW3b99evXr1tGnTxo8fP2XKFPTiwtSpU9FqL1261L59e0VFRXLwA31VK43Db6ry+fysrCwbG5vevXvLy8tbWFigtUlqXGJi4rx58yiKOnbsGO1QCg4OHjVqVNWMr3fv3i0oKJg8eTKbzd6zZ48MoUca1759+23btqF9XLhwIc0OaSRlf2wpGpeXl/f1119TFGVubo6Gl5DGdejQwdbWltxHHo934sQJOTm5Dh06LF68mBY8EydORLfRMeT09PQrV66gxx7GjRs3YcKEnj17UhS1b98+dPK7ceMGRVEjR45ED07hbdVK48hXHPh8fmZmprW1defOndFjxEhDJTUuLS0NPc155MgRvF2UyMvLY7FYHTp0uHr1amho6NixY6uOl0uXLtGKkR/RmX748OHLli1TV1dHrzqSBkwWZpJutho3efJkWv2HDx/O4XB27tyJ8rHGSV5vr169mqIoDQ2NlStX0oLn888/pyjKwMAAvyKQlZV1+vTppUuXGhgYoFeXNDQ0KIpCvlhWVnbo0CE5OTkDAwN8NwZVoLYah95URb88mZKScurUqW7duuno6KDnraXeVE1NTe3evXvVFcj169fJM6ZIJHry5En37t1VVVVDQkK4XC4aUjl79iwNGvkRaZyGhsa+fftUVVVRTyVD+8hlpaZB4xpP47S0tGjnnv3796uqqo4ZMwa1Dda4u3fv0i4ET506paGhwWaz9ar5Gz58ODoTZ2Zm7t69u2fPnmw2e/To0atXrzY2Nkbzss6ePRvdcnJyckKTzdIG8Oqscaj+ZWVl6LbFZ599hp7lLC8vV1dXp43G9e7dm8PhbNiwgRaR+fn56CS9e/futLS0oUOH1vigFdY4HR0dOTk5TU1NbW3tc+fO0QSRtiEZH5uzxtFu9mGNQxeRWOPIV1PRnqJHDBUVFXv06CE1fGbNmoXePisuLt6wYUOXLl3atWs3fvz4tWvXrlixAt3awBflBw8eVFVV7datG607q+1oHNY4VMny8vJ169ZxOJxOnTqhU76TkxNtNC46OnrKlCkURUle58TGxiLvP336dF5eXv/+/ZWVlU+ePClZSdz6SOPk5OS0tLSUP/xpa2s7OTnJWAQvKzXRUjQuPz/fxMSEoqg9e/aQGtetW7fHjx+Tu1YVWmjsXFVVtWfPnlKDp3///qiziouLW7t2bYcOHVRVVadNm7Zx48alS5eimXT27NmDzlJ79+5FJ29ydBC9Kst8NI7UOFTb0tJSNDi9cOFC9NiApMZFREQgWb9+/Tq5j2ikR1FRseoRjlOnTnl6eqL5hGXfoUMap6KioqysrKOjg34OxNHRkbZm5h9bkMaNHDmSw+F88803aO+wxpFPRKCvpk2bRlGUsrKy1MjR09MzNjZG7RUdHT1jxgwtLS01NTVDQ8P169cvXrxYU1MTXQOIRKK8vLytW7dSFGVsbEx7g6RuGoebJj09fc6cORRFLV26FGVKjsYlJiainyN68OABXhAlPDw80N0JX1/fyMhIiqK6dOkiWYxcCmkcOmGhnuezzz4LCAioc88DGtcyNO706dOamprt2rVLr+YvIyOjrKyMx+N9//336F2BGzduZGVl5X/427dvH4vFwhrn6Oj4KTROKBTa29urqKhoamq+ePFCJBKVl5draGjQNA494LxmzRoystGBOmvWLHTccrlcNOP21q1bacXIj1jjqp5Hvnbt2vnz59H0UX5+fmQx5ukWpHHojLhgwYIaNe7UqVMURQ0fPtzHx0dq+HC5XDSQsGfPHgUFhS5duly/fr3qfZGCgoL8/Pzly5ejWZ0RRktLSxUVlW7duklSrdtoHF7P0aNHlZWVFRUV0cz4khpX9ZAA+iGvS5cu4REgtHhUVNT48eMpirKyssrLyxs0aJCiouKJEyfwyiUTSONQt3vu3LlNmzYpKCiMGDECP/8kuYjsnNanccXFxebm5hRFzZ49OzIyUmrwoAd6cnNzd+/ejR63ffz4MZfLLSgoSEpKWrduHfJFpHG7d+/+FBpXUVFx5swZiqLGjx+PHg+Q1LiYmBj0QuXly5dp7cjn89lsNroCfPbsGbqAdHZ2phUjP6IzPUVRnTt3dnZ2XrhwIZvNnjFjBk1PyUVkp1uWxsnLy+NHurHGSQ7Po2eyJ06cKDVy0tPTc3NzKyoq3r59O2fOHDTnqKenZ3Z2dkFBAZfLHTlyJKlx6IciG1zjBALB2rVrWSzWgAEDUBtJalxSUpKmpmanTp3Ip9tRYTc3tz59+rDZ7ICAgJiYGBQSksXI1kcah2433759G70SgW9tkSUZpkHjGk/jNDU1GY7G3blzhzYad/v27S5dulAUJbubiI+PR1OWHDt2jBzhP3LkCJvNRhqHJnhjsVgNeFMVRRt6kobD4airq6NxPqRxtHnj0KXPzJkzaWNmXC534MCBVRNDnDx5ks/nT5w4kaIoQ0NDGdcoSONYLNaVK1fQxHuGhoYsFmvHjh3kSx4MD4Z/H9zOS59lvXzb4w7o3Zca/zdx6LLGcWsEV8rkmcw3ymTeuGHDhtFuFqNhEkmNI+f6QnV4+PAh+vEr8o0Eyerl5uaqq6srKioeOnSI/BadifFoHJrgTU5OjnyqEpWvj8YJhUJLS0slJSVFRUX08iNqXPLZuNevX3/55ZfobiD5hIpIJPL09EQPjz59+rSgoAANA+zcuVOGkyGNU1dXP3fuHJp/B502Dhw4ICPkSDK0dEvRuLz/bqru3r0b3ZFHN1UlR+P4fP6pU6fQr2ukpaXJwBIeHt63b19VVdX79+/j4xqP7uPRuLNnz6KbqrS5x+p8UxU1AY/HO3r0KLqECwwMlPqman5+PppNZs+ePbSGi42NRTZ/7969iIgIdD2AHsmilcQf0Zm+ffv2Dg4OFRUVXC4XjSQdPXqUfFIQl68x0eI0btu2bWinZGjchg0b0NzUKMyqg+Dg4IDObuRDbzweD93d3rdvn0gkKikpQfcfGuqmKq5MeXk5elS0f//+KFNS49LS0gYMGKCsrHzx4kXyKECvYmhpaXXs2DEiIqKwsFBOTk5DQ+PEiRNkMbwtlEAax+Fw0FnS0dFRT09PXl6+zrcCQOOao8bdvn2b9hBueHg4Osfs3buXNg5R8eEPxUdgYOC4ceOqrkqfPXuGw4jH4x04cIDNZs+aNQsNR8fHx/fv35/NZh88eJB8Qyc7Oxtd8TCcN468gBAKhdnZ2Tt37kRP+6JfpC4vL9fW1kYPneD6XPjwc91Dhw4NDQ3FmSKRyM3NDU2rYWdnhx4crHrSS0NDIyQkhNYz4k4Bnenxz27y+fynT5926tSpY8eO9vb2NBWmHUtSP7YgjUMDG5Ia9+OPP9J2LTc3F/1S3LfffktqDZo5CVMKDw9XVlZWU1NzdXXFa6ioqEB9HH5ExsnJSU9Pr+peydmzZ/Gy6M5UnTUOTeiFfo+rY8eOSNFcXFwGDBggLy+Pp7QoLi5Gz8dMnz49NTUVBw+Px0NPHWhoaGRmZpaWlh46dIjFYk2cOLFqTlEyePh8Po/HQzlI47p164bfLjx//nzVy63y8vJ1G81tQRqH3nkyMzOTrXEikejx48foHEO+GozCA5MUiUR+fn7t2rUbMmQIPhMLhcKsrCzaaFxgYCD65eULFy6Q15kZGRkGBgYM31SVvKmalZWFnrVasGABenHKw8MDmRn53MjChQuR6uGH2UUiUUVFhYWFBUVRQ4YMiYiIKCoqWr58OZvNHjFiBJ6vFe2vQCDAfS8600+ePBk/2nXx4kU0mktOh4aPoxoTLU7j8H0SGRr3888/o2HOBw8ekH0FejkAH5iXLl2qGgpVUVHBOSKRqLCwED3tit+Rv3r1qoaGhrKyctUEVfjYF4lEtf1NVfJXHAQCQVBQEJpKcNGiRaiZHBwc0EQ5eNaq3NxcNDG+iYkJ/sE3oVCYn5+P+mFDQ0M0r/jnn3/OYrHmzJmTnp5OVpIMHqRxPXr0QJsrKioyMzNTVlYeOnSo5IhmjZEDE47863CNNuEI89G4W7du0TSuoqJi3759KioqSkpK169fT0hIyP/wl5iY+PDhw2fPnqHGjomJmTFjRtVPZZ85cyY/P18gEOTl5Tk5OaEniiZMmIA6pry8PFNTUw6H06tXr8uXLycmJhYUFOTl5T1//hwNlTHUuK+++io0NDQpKSk+Pj4gIODYsWM6OjrkKw48Hm/o0KEcDmflypUvX74sLS1Ftqerq9uuXbstW7a8evWqqKiooKAgNDR0/Pjx8vLyS5YsQe8uRUdH9+3bF92q8PHxycjIKCwszMrKCgoKOnXqFBoKQhrH4XDwS685OTmmpqZKSkqGhoZJSUnkgcTkeGhBGmdmZkZRlKTGXbt2jbanAoHAzMwM3fC6fv16cnIyulsaHx/v6OiIf+siLS0NNd/JkycLCwvRGMPjx4/RjNNjxoxB57Dc3Nz58+ejx95//vnn5OTk/Pz87OzsgIAAVJLhm6rr1q1LSEhISkqKjY318fHZsWOHpqamgoKCubk5qr+/v/+YMWPQ2FtycjLauru7O7phin5FoKSkBL1bM378+KoBws2bN5eVlQmFwuDg4H79+snLy69bt87f35/L5b59+zYjI8PLy8vOzo7L5ZJvqmKNKygoQE9nfv7553V416FValxGRsbatWsVFBQGDhzo7OyclpZWWFhYFQMxMTG3b99OTExEh1hoaKiurm7nzp1v3bpVVFSEXlu5d+8eerlq8+bN6ORXWlo6depUiqLGjh378OHD169fFxYW5uTkuLi4DBw4kKHGKSsrb9myBQVPTEwMCp6qJyarovfs2bPIDmNiYuTk5FRVVXfv3p2SkoKCx9HRUVVVVU1N7cyZM2lpacXFxTk5OY6Ojjo6OhwOZ/PmzUg1bGxs0JsZmzZtCg8PR/f40tLSPDw88FA30rhJkyZhjeNyufPmzUNTWJPTH9IOxuo+tiCNQy9jbtmyBe2LDI0rLi5Gb62NGTPm6dOnb968Qc0dHR199+5dfHvB1ta2c+fOcnJyvr6+paWlPB4vLS3NysoKvdWHpwQPCwszMDBgsVj6+vre3t7p6ekFBQUZGRm3bt1CPY/sxxnxvHFXrlxBwRMdHe3i4rJs2TIlJSVtbW38ioObm5uOjo6GhsaFCxeQnFVUVNjY2GhpaVUF+c2bN9G1IpfLvXv3bs+ePdu1a3f+/Hl0RWRvb6+pqamlpWVqahoREZGbm1tYWJiWlubi4vLgwQMUnEjjyOdSwsPDJ02axGazd+7cSV7eVBcttHwYjWsZGicSiVJTU1etWiUnJ6empjZ37twdO3Z888038+fP19HRMTQ0RDcyioqKjh49qqmp2aNHj507d544cWL79u0jRozo1auXhoaGtrY2CnSBQBASEjJt2jT0KxELFizYtWvX9u3bJ06cqKKiwnzeuO7du8+cOXPhwoWzZ88ePHiwvLy8pqbmqlWr8NRTfD7/0KFDCgoKampq06ZNCw4ORp3+zZs3e/TooampOXfu3H379u3atWv06NHonQxnZ2fsXnfv3tXV1ZWTkxs4cOCaNWtMTU03bNiAvBA9TYw0Tk5ODmucSCQKDAzU19eXl5c/cuQIvr9Di/vqPjZnjaP9cFZ1Gnf16lXa3qG5bRcvXqysrNylS5dFixbt2rVrx44dRkZGHTt2XLduHXpuqWry+k2bNsnJyfXu3dvU1PTo0aMbN27U09NDtza6d++OJ3Zyc3NDA2/t27dftGjRjh07TExMRo4cieZnZ6hxvXr1mjdv3sKFC2fMmNGnTx8Oh6Ojo7Nx40Z8PZqdnb1x40Y0NeuiRYuQbBUWFp46dapTp07q6urLly/fv3//tm3bPvvsMwUFBXLO56KioqtXr6KfLhg1atTXX3+9e/fuNWvWDPzw5+bmJhQKJUfj0Mw+nTp1UlVVPXr0aG3705aicbm5uehuF5PROJFI9OLFixkzZqC3T5YvX25qarply5apU6dW/ULG8ePHkfpkZWVt2rRJUVFx1KhRVU/iHjt2bMOGDX379u3Xrx+azw8NiwoEAldX10GDBrFYrF69en311VempqabNm0aOnQo+p0AJhOOoNmM582bt2DBgunTp6P3T6t+aHzPnj1paWko+MvLy9GNdR0dnfXr16ObA1XDh2ZmZu3atevQocPy5cvNzc03bdqkq6vLYrFmzJiBf5KrqKjoyJEj6IcHxo0bZ2JismvXrhUrVvTq1atLly7IRyU1js/nOzs76+npdezY8c6dO3jcjnYwVvexBWnc8OHD5eXlmWicSCQKCgpC1+d6enorVqxAwWNgYKChoXHo0CHU1aenp8+ePRvdu7e0tDxy5Mjy5cv79+/fu3dvOTm5wYMHo7mWeDzejRs39PT0qqY81NXVNTY2rpq2d82aNf3790c9D0ONGzFixPz58xcuXDh16tQePXqgOfC//fZb/MhTfHz83LlzWSxW165dv/zyS9Rk6enp27dvV1dX19XVXbdunaWl5caNG9G02MbGxvgEVFxcvG/fPh0dHVVV1cmTJ2/dutXMzGz58uXdu3cfP358TEwM/hWHrl274mAQCATXr19HQ5Lop1PwV0wSoHENo3EpKSmjR48eNWoUNnqSvq2t7fjx44cPH47vBqJvz5w5UzXfzMKFC9HHxMTEdevW9e7d287OjjYEjQokJycfPXp03Lhx6urqbDZbSUmpd+/eX3zxxfXr17GvJCcnm5ubo75JSUlp4MCB27Zte/jwoYmJSceOHXFQ8ng8Pz8/dJ5G86fr6uouXbp00aJFvXv3Jn/FldwRlC4uLt6xY0dv4q/qB45GjRq1fPnyy5cvJyQk4LFxoVCYnJy8c+fOfv36KSoq2tnZoa+Kioru3bs3f/78rl27ot8I0tXVXb16tZubGzkMWVFR4eDgsHLlSj09PQ6Hg14qHD58+KZNm4KDg0Uikbe3t6GhYd++fcl33cvKyq5cuTJy5MiJEyfio0tyL6TmNInGPX36dNKkSb1798YTpJF1e/TokZ6enpGREe3b48eP6+npmZiYoN6Hy+WOHj16wIABkrM3obnCY2NjDxw4MGrUqHbt2lWN1yopKVVxW7Zs2c8//4zvMb1+/Xrr1q1du3Zls9mqqqrDhg3bvXv3ixcvFi9e3KFDh/Xr1yOz4fP5bm5uK1as6N69O4fDUVJS6t+//5YtW0aOHNm7d+9jx46R9aelX79+vWLFChw7ffr0GTBgAPptxBs3bqBxMrSIUCgMCQnZsGEDUnk8nw6Xy7127ZqhoaGOjg46Cvr3779582Z/f38yePLz89HPnHTr1k1OTg7d3Bk7dqyZmVlMTIxQKHzx4oWeshS/WAAAIABJREFUnp6+vj4eUEEzV50+fbpPnz7z5s1Db1vT6i/jY5NonK+vb+/evadPny754COfz799+7aent6mTZvIwcX8/Hxzc3M9Pb3jx4+jm+wJCQkGBgYTJ07EU62Su4luPJmamg4ePFhZWZnFYrVr127w4MGrV6/G82zz+fyqgat169Z16tQJBc/IkSMPHjxoZ2e3aNGijh07ot+EEIlEpaWljo6OS5cu7dKli7y8fNUP6w0cOHDt2rVTp04dMGDAnTt3yE1Lpj/77DMyeAYOHKivr79+/fr79++T+ygSiUJCQtDps1+/fvgd0vz8/LNnz06ZMgW9266srDx48OCdO3eGh4eT28rPz//xxx+NjIw6deqEfpiuY8eO+vr6e/fuRZcZrq6uenp6X331Ffn+eF5e3tGjR/v3779q1araTuXaJBp369atfv36zZ49mzZtL0JhZmbWp0+fZcuWkWREItGcOXP69et38OBBlO/q6oq6L9o9aPStUCj08/PbsmXLwIEDlZSU0O/mDR06dOPGjehqChV78eJF1U/rotkYNDU19fX1T506ZW9v//nnn6NHzVCxwsLCBw8eGBkZaWtry8nJtWvXbsSIEatXrx4/fnzv3r3JG+ioPPl/cHDwnDlzyOAZNGjQlClTtm7damdnV3V7FA8flJeXu7u7L168uHPnzlWzgaCVoJ8B/O677yZMmIBeoVVRURk5cqSFhUV0dDR5yuNyuRcvXpwxY0aHDh3QDMOdO3c2MDA4efIkutF0+vTpQYMGTZgwgaxefn7+hg0b+vTps3LlStqruGQxqWnQuIbRuNLS0pAPf3gsgcSdnZ0dGhpa9ZPtWLbQt2lpaUFBQfjRn9LS0ri4uICAgOzsbBxS5HrQk54vX7709PR0dnZ2c3MLCAhITk6mrTY7O9vf39/JycnNzS0oKCgrK4vP579+/fr58+f4h7/QGavqyeKAgAAXFxdXV1d/f/+UlJSkpKSAgIC0tDTaOslq8Pn8hISEAOIvKCgoIiIiLS1NcgBDIBDk5OQEBga6urpWTYaC96u8vDwpKcnX19fZ2Rltnfz5B7w5gUDw5s0bf39/V1dXZ2dnLy+vsLAwLpeL1pOfnx8REREQEEC79s3NzQ0LCwsICKjt8dAkGodrSz64hgnk5OT4+/tHRkbSvk1NTfX394+Pj0ctxePxQkJCAgMDSRPCK0HPruXn54eHh3t4eKDYCAwMfP36Nak+IpEoOzsbNYq7u3toaCjq3VJSUry8vEJDQ3FUoJ8OfPHihaurKwqz7Ozs8PDwgIAAUqnJCqB0WVlZTEwMETsB6BDIyMiQvHQRCATp6en+/v4uLi7kSbqsrCwuLs7b2xsdBSjIcU+KN8rj8VJSUtDuODs7P3v2LDIyMjc3F5UsKCjw9/cPDQ3FV+FowcLCwoCAgNDQUKnHMl65ZKJJNK6goCAgICAiIgINqZK1Qj9Ph4KEbOWKioqkpCR/f//U1FSEorS0NDw8PCwsTMbxkpubGxISUjUQ6+Tk5OHhERwcnJGRgeMBXSq8efPGx8cHFQgPDy8oKODxeImJiV5eXjhQ0XNRqampvr6+Li4u7u7uQUFBGRkZ0dHRgYGBNd6ODA4OJoMnODg4KioqMzNTsvVxiD5//pwWPDExMTh4goODpfpHRUVFQkKCj4+Py4e/58+fR0VF4Rdr8vLy/P39o6OjyStz9DhgUFBQSEhISUkJ7uvIRqku3SQal5mZGRgYGBkZKdlvi0SixMTEgIAA8iIHVT4yMhKdd9DHvLw81NlKHr+ogEAgyM7OrprZEQWPp6dnaGgorcmEQiHqZJycnLy8vKKiotCt+ejoaA8PDzSIhdZWUVHx6tWrZ8+eOTs7e3h4hIeHv3nzBlVJ8hBAi6D/3759i4rh+AkODo6Jial6DocMY1SYx+MlJyf7+PjQXlguLCx8+fKll5eXk5OTu7t7eHi45Lt0QqGwtLQ0Pj7++fPnTk5OLi4uPj4+MTExOHhev34dGBhIe8sH3XBDPQ+tqyf3QmoaNK5hNE4q3E+XiX4WWnY3Iftbsm7MS5JL1TaN6iy5VHX5tJIMi9GWqu3HJtG42lay/uVlw0TfMowK2auqf1Vlr4Hh1hkWk72tGr9tEo2rsVYNW4AJSSZlGrZWstdWXX2qy6etjWEx2lK1/dgkGlfbStazPCIpo2Nhjpp5yfrXWeoaZOwFWb5x6gka1yI1jgwUSDcggTaicQ1IDFaFCbQFjcM7C4mGJdAWNK5hicHaMAHQONA4HAyQaJp544B76yAAGtc62rFJ9gI0rkmwt46NgsaBxrWOSG6YvYDRuIbh2CbXAhrXJpu9YXYaNK5hOLbJtYDGgca1ycCvZqdB46oBA9k1EwCNq5kRlKiGAGhcNWAgu2YCoHGgcTVHSdspARrXdtq6wfcUNK7BkbadFYLGtZ22bvA9BY0DjWvwoGrBKwSNa8GN19RVB41r6hZowdsHjWvBjdfUVQeNA41r6hhsTtsHjWtOrdHC6gIa18IarDlVFzSuObVGC6sLaBxoXAsL2U9aXdC4T4q3da8cNK51t+8n3TvQuE+Kt3WvHDQONK51R3jt9g40rna8oDRBADSOgAHJ2hEAjasdLyhNEACNA40jwqHNJ0Hj2nwI1B0AaFzd2bX5JUHj2nwI1B0AaBxoXN2jp/UtCRrX+tq00fYINK7RULe+DYHGtb42bbQ9Ao0DjWu0YGsBGwKNawGN1FyrCBrXXFumBdQLNK4FNFJzrSJoHGhcc43NpqgXaFxTUG8l2wSNayUN2RS7ARrXFNRbyTZB40DjWkkoN8hugMY1CMa2uRLQuLbZ7g2y16BxDYKxba4ENA40rm1GvvS9Bo2TzgVyGRAAjWMACYpIJwAaJ50L5DIgABoHGscgTNpMEdC4NtPUDb+joHENz7TNrBE0rs00dcPvKGgcaFzDR1XLXSNoXMttuyavOWhckzdBy60AaFzLbbsmrzloHGhckwdhM6oAaFwzaoyWVhXQuJbWYs2ovqBxzagxWlpVQONA41pazH7K+oLGfUq6rXzdoHGtvIE/5e6Bxn1Kuq183aBxoHGtPMRrtXugcbXCBYVJAqBxJA1I14oAaFytcEFhkgBoHGgcGQ9tPQ0a19YjoB77DxpXD3htfVHQuLYeAfXYf9A40Lh6hE+rWxQ0rtU1aePtEGhc47FudVsCjWt1Tdp4OwQaBxrXeNHW/LcEGtf826jZ1hA0rtk2TfOvGGhc82+jZltD0DjQuGYbnE1QMdC4JoDeWjYJGtdaWrIJ9gM0rgmgt5ZNgsaBxrWWWG6I/QCNawiKbXQdoHFttOEbYrdB4xqCYhtdB2gcaFwbDX2puw0aJxULZDIhABrHhBKUkUoANE4qFshkQgA0DjSOSZy0lTKgcW2lpT/BfoLGfQKobWWVoHFtpaU/wX6CxoHGfYKwarGrBI1rsU3X9BUHjWv6NmixNQCNa7FN1/QVB40DjWv6KGw+NQCNaz5t0eJqAhrX4pqs+VQYNK75tEWLqwloHGhciwvaT1hh0LhPCLe1rxo0rrW38CfcP9C4Twi3ta8aNA40rrXHeG32DzSuNrSg7EcEQOM+wgEfakMANK42tKDsRwRA40DjPgqINv4BNK6NB0B9dh80rj702viyoHFtPADqs/ugcaBx9Ymf1rYsaFxra9FG3B/QuEaE3do2BRrX2lq0EfcHNA40rhHDrdlvCjSu2TdR860gaFzzbZtmXzPQuGbfRM23gqBxoHHNNzobv2agcY3PvNVsETSu1TRl4+8IaFzjM281WwSNA41rNcHcADsCGtcAENvqKkDj2mrLN8B+g8Y1AMS2ugrQONC4thr70vYbNE4aFchjRAA0jhEmKCSNAGicNCqQx4gAaBxoHKNAaSOFQOPaSEN/it0EjfsUVNvIOkHj2khDf4rdBI0DjfsUcdVS1wka11JbrhnUGzSuGTRCS60CaFxLbblmUG/QONC4ZhCGzaYKoHHNpilaXkVA41pemzWbGoPGNZumaHkVAY0DjWt5Ufvpagwa9+nYtvo1g8a1+ib+dDsIGvfp2Lb6NYPGgca1+iCvxQ6CxtUCFhT9mABo3Mc84FMtCIDG1QIWFP2YAGgcaNzHEdG2P4HGte32r9feg8bVC1/bXhg0rm23f732HjSuMTQuvajA7Jmdka2Vka1VdHZGjS2WkJf9leN1I1urNU63kwtyZJc/E+Q+x9Zqvv2ly+HPZZcUiUTR2RmoGmbP7NKLCmosjwpvc38QlZ1eY+FXeVxU/tCLJ5nFhTLK55YWb3azNrK1Wut85yWDNXu9jkdrPhPkUVJRLmPN9fyqeWoc2vet7g+YsErMz0blD/o6Zshs4iJe2ekgd1TYJy2hRnTP016hwqeD3It5NbSCX3qS8dNbRrZW2z1seHx+jSu3iQ1Z8uiqka3Vfp9Hsgu/eVuwy+shqkl0Ts1H08WwZ/PsLs21vXgu2FP2muv5bTPUuICMZNwKZfyKGnfwYVzokkfXjGytzJ87yC78oU+zZd4Kl8K859tdmmNrdSbYQ/aaRSLR44TIObYXjWyt9njb11hYJBLdfOmHanIj8kWN5VHJ7R42UTk19Gnl/IofQrxQeZfk6BrXXJ8CzVDj4nKz5ttfMrK12ux2/3VhXo17d+ulP2J1PcK3xsKo5DYGfRpPwL/wXys4JUXJXnM5v8I2Lgyt/KfowNIKnuzy+WUl54I9Ufnnr2voA/3eJK76r0+rENTQp2UWF+73eYTWHMmtIdJkV7LGb0HjQONkBQk+2EDjzJ3/DRXaPxOHLmsct0ZwX8uCWO/vUCuAxiGQoHHMAwo0TpIVOppA4yTJ0HJA42hAQOPeV/NHVZNfi2wLZ3XaybW2H6dZmyXkZ9ParAE/wmgcDSaMxtGAyP4IGkfyAY0jachOg8ZJ8gGNk2QiNQc0joYFNK46LQONo4XKvx/hpioNCtxUNbK1gtE4FBWgcbSjQ8ZH0DhJOKBxkkyk5oDG0bCAxoHGwbNx4oMCRuPELBikYDSOhAQaR9KQnQaNk+QDGifJRGoOaBwNC2gcaBxonPigAI0Ts2CQAo0jIYHGkTRkp0HjJPmAxkkykZoDGkfDAhoHGgcaJz4oQOPELBikQONISKBxJA3ZadA4ST6gcZJMpOaAxtGwgMaBxoHGiQ8K0DgxCwYp0DgSEmgcSUN2GjROkg9onCQTqTmgcTQsoHGgcaBx4oMCNE7MgkEKNI6EBBpH0pCdBo2T5AMaJ8lEag5oHA0LaBxoHGic+KAAjROzYJACjSMhgcaRNGSnQeMk+YDGSTKRmgMaR8MCGgcaBxonPihA48QsGKRA40hIoHEkDdlp0DhJPqBxkkyk5oDG0bCAxoHGgcaJDwrQODELBinQOBISaBxJQ3YaNE6SD2icJBOpOaBxNCygcaBxoHHigwI0TsyCQQo0joQEGkfSkJ0GjZPkAxonyURqDmgcDQtoHGgcaJz4oACNE7NgkAKNIyGBxpE0ZKdB4yT5gMZJMpGaAxpHwwIaBxoHGic+KEDjxCwYpEDjSEigcSQN2WnQOEk+oHGSTKTmgMbRsIDGgcaBxokPCtA4MQsGKdA4EhJoHElDdho0TpIPaJwkE6k5oHE0LKBxoHGgceKDAjROzIJBCjSOhAQaR9KQnQaNk+QDGifJRGoOaBwNC2gcaBxonPigAI0Ts2CQAo0jIYHGkTRkp0HjJPmAxkkykZoDGkfDAhoHGgcaJz4oQOPELBikQONISKBxJA3ZadA4ST6gcZJMpOaAxtGwgMaBxoHGiQ8K0DgxCwYp0DgSEmgcSUN2GjROkg9onCQTqTmgcTQsoHGgcaBx4oMCNE7MgkEKNI6EBBpH0pCdBo2T5AMaJ8lEag5oHA0LaBxoHGic+KAAjROzYJACjSMhgcaRNGSnQeMk+YDGSTKRmgMaR8MCGgcaBxonPihA48QsGKRA40hIoHEkDdlp0DhJPqBxkkyk5oDG0bCAxoHGgcaJDwrQODELBinQOBISaBxJQ3YaNE6SD2icJBOpOaBxNCygcaBxoHHigwI0TsyCQQo0joQEGkfSkJ0GjZPkAxonyURqDmgcDQtoHGgcaJz4oACNE7NgkAKNIyGBxpE0ZKdB4yT5gMZJMpGaAxpHwwIaBxoHGic+KEDjxCwYpEDjSEigcSQN2WnQOEk+oHGSTKTmgMbRsIDGgcaBxokPCtA4MQsGKdA4EhJoHElDdho0TpIPaJwkE6k5oHE0LKBxoHGgceKDAjROzIJBCjSOhAQaR9KQnQaNk+QDGifJRGoOaBwNC2gcaBxonPigAI0Ts2CQAo0jIYHGkTRkp0HjJPmAxkkykZoDGkfDAhoHGgcaJz4oQOPELBikQONISKBxJA3ZadA4ST6gcZJMpOaAxtGwgMaBxoHGiQ8K0DgxCwYp0DgSEmgcSUN2GjROkg9onCQTqTmgcTQsoHGgcaBx4oMCNE7MgkEKNI6EBBpH0pCdBo2T5AMaJ8lEag5oHA0LaBxoHGic+KAAjROzYJACjSMhgcaRNGSnQeMk+YDGSTKRmgMaR8MCGgcaBxonPihA48QsGKRA40hIoHEkDdlp0DhJPqBxkkyk5oDG0bCAxoHGgcaJDwrQODELBinQOBISaBxJQ3YaNE6SD2icJBOpOaBxNCygcaBxoHHigwI0TsyCQQo0joQEGkfSkJ0GjZPkAxonyURqDmgcDQtoHGgcaJz4oACNE7NgkAKNIyGBxpE0ZKdB4yT5gMZJMpGaAxpHwwIaBxoHGic+KEDjxCwYpEDjSEigcSQN2WnQOEk+oHGSTKTmgMbRsIDGgcaBxokPCtA4MQsGKdA4EhJoHElDdho0TpIPaJwkE6k5oHE0LKBxoHGgceKDAjROzIJBCjSOhAQaR9KQnQaNk+QDGifJRGoOaBwNC2gcaBxonPigAI0Ts2CQAo0jIYHGkTRkp0HjJPmAxkkykZoDGkfDAhoHGgcaJz4oQOPELBikQONISKBxJA3ZadA4ST6gcZJMpOaAxtGwgMaBxoHGiQ8K0DgxCwYp0DgSEmgcSUN2GjROkg9onCQTqTmgcTQsoHGgcaBx4oMCNE7MgkEKNI6EBBpH0pCdBo2T5AMaJ8lEag5oHA0LaBxoHGic+KAAjROzYJACjSMhgcaRNGSnQeMk+YDGSTKRmgMaR8MCGgcaBxonPihA48QsGKRA40hIoHEkDdlp0DhJPqBxkkyk5oDG0bCAxoHGgcaJDwrQODELBinQOBISaBxJQ3YaNE6SD2icJBOpOaBxNCygcW1I48r4FTG5GRHcNPzPKzVus9t91H08TojA+SiRU1JEy3FOilr86KqRrdXyJzdck6PJb33fJIRmvSZzDvg8NrK1mmd38aifE5kfwU2Lzc2k5TxOiEDV2Ox23zM1jvZtGPejNUdw01Dh9S53H31c7djcjNdv8yKz35BrcEp6icrv8nr47HU8/iokK9XvTWJoVirO8Ul7tdb5jpGt1conNx+9Csf5H+qcEZ+XFZktphfBTbsT5Y/WfMDncVBGMlk+tTCXx+fTjrc6f4zPS59lvXzb4w7mzmpM/pk4dFnjuDWC+7rOW6QtWM6voFEVt4LzXYePWcXkZqRJtIJLchRitdPzoRfRxGFZrwPSk8hWCMhI2u/zCBW+Fx1AUn2Z/SYqO53WCveiA1Dh/T6PAj9uhXDu63Ai4CO4adYxQcscfzSytdrgci8kU9z0Edy0V3nc5IIc2srPh3h+4XDFyNbqGw8bsiahWakv3iSSOZ6pcSauP6GaSB5NkjF/2O/pXLuLc2ytLH0dyfVEcNNSC3Np/Ovz8X6M/5e2s82eajKJHHNnta8duky6t7s+W6Qtm1NaHJ2TTu7jg9hg3ArBmSnkV/+1wkeH8IVQL9QK2zwekIWltoKMPk2yFY74PZ33oRUO+Dwm1xzBTZPsdi6HP59ja2Vka7XF3ZpWODY3483bfFrmyQBXFA8nAlzIr8KyXtOCBx9NG1zu0oInMvsNjV5IZupBX0e05h8jfck1R2a/ySwupPGvz8fAjKTJ95YyjJx/g+dRn288LnOL39Zno+SyJRXl5A5GcNOeJEbOs7toZGu11vmOe0oM+W1k9pvkghwyJ4KbdjLw/1vhWIAz+ZWMVljvfJfW/0u2QmhW6iHfJ6gVrkf4kGsO56aFf3zOCslMvRDqhQqfCXKnnSxSCnIS8rnkGl68SbD8r4lpfWBgRnLQx4fM/Zigrz70aRtd7pEdaQQ3LTong9ZvP3sd/42HDaoJrd+O4KYVlZeR8OuZvvPSa/HPBqaMex7ZYVadq8nIp2R8x/ArC2d12dWq8dtp1mYJ+dn1RIkX5wsElr6OXzhcwf8W2l+eY/vv8WBka7XA/jLO/8Lhyma3+wVlJV+7/ERmLrC/jAob2Vot/Lj8HDsrsuQXDlfmfjjSkMnRvvJIiVnvfJfMxGueY3uRtmazZ7aWPo/JwqhDN7K1miNR7X3e9kEZKTs8fybL45XP/Xjlc20vGtqcn293CRf+AORfGpJADvg8tokN+dr1IyDz7S+hwnPtLi4kwC5+dNU+Pqw1aVx+WcnBj4NHRivseWYXnJGyk1krLLS/PN/+Ehl+Cx0u4+CZby9unS8crmx1t74Y+syEcSsc83fe4maN2/cLhysL/muyObb0iP0x8oVnauwyxx/J8vPs/mti24tk/kL7fytJy0HneMng2ex23ykpiiz8hcMVdCoysrWirecLhyv+b5LwYVv/RJNrXFxupsQh+f9UJVvheoSvZ2rc8mpaYQ6jVqi2T3ua9JJ5KzyMC130SNxbfuFwZf5/wfB/7F2HWxTH+9/jOKogCBZU7CXGEqMkxl6SqIBg7y3WqDEmNgRR7GKlWADpoPQmIgJSRKp0pPfOHcfV3X/g9wPeON/NXuFUxDMuj4/P7Nzs7Mz7vvvOZ95533cpw1gdfM89Jzmp+u0akhLoYfE/0zSXEBVJpoMmkdRpf70I8Mx9RelZ1guyP9o7paYvheezwzihSLTnqReZa0ifm0osQyfjg5KrSyi0Qq/wx3Dhz9jH3nmplJ5lcWFvtJddcuSWcFfysEnDcCIvFtsi3CJLch5kJ64PfYjay9GB5oH/0pa96LTsRKuEEPKwuxWXjEV/f7R3Uyfn4xUO6oGGcd1Gl76FcQRBvKotQ5KHAJlkwTTAIbAoUygWRZXlopVJshmqMQtwTKkp2fPUC9XIKfzx3F8gEvnkpyrSs3mgU0ZdxbPyfPQOyOl5dfC98LdvuEL+g+yXikxzd5THxZSoDaEP5fQJP60Jvu+T/5rN77yQEqnIsI/GPi5oqkPS/PGFz26NE4pFz8sLFOGCZZBz2NvsTiHf5U2igly4n5WALChyeGEW4Hj99bNGLvtSSpQiXPjjuX9uY82d9Bdo9ZXT+faIR+n1FSKx+K8XAXKaoZ/2RXtFlLxBuyBUL1kwDXAIKc7iC4V7n/5jq5NsQ645FOP38QJD7uGzwzixWOyQEacIF7ZFuKXVlYvE4r9f/OPsQaaMZHlftFd4yRtFxMw0wCGoKIsnFO57ZzGV7I1ccyjGF8fxK6+ekitlldeG3G/jcWs5bafig2S1IdcfeOYTVJSpyNu0OvheRElOflPtked+5B6klk0DHO2SI7kCPpn7H1n+7DCOIIjg4ixF3nezQMf0uor6jvbTCcFS6UOp3B/tHVKcpQgXLIPuhb19U9Bcd+SdHYvSFfnSNMDhfFJEUUs9nEeRf5JatkoIrma35jXV7nnqKbUBudI0wMEh48X5pAhFhr094lFGfWVaXfmanvMEcj+SZdMAB9/81zyR8CMFhnw7DeM+CYwTicUn4npXNIdifCvZLQRBcPi8QzG9q48T8YEEQUSV5vYqWxZBzqm1ZTiOl7U17VUA9p1NDCMIoordYpXwzymbpPyhmt9jfDsE3TbhzPrKA+8Oi9GvlIJ5oOO11OiytqbzSRG96og/nvtXtncTJK6yaGu4K6UryqVlkLN7Tgq/T9+Hzw7jCIKoZreis07KlMmXB5/5dPRY5rPqK3sFZ+aBjldePW3p7LiXlYBMm+TeyOWdke6vasoIgoivLN4W7kb+SbJsGeTslpPMFwkLmut2RrpLNiDXmAU63s140crjEgSRVlfe60jMA52CijI7BYK/43pHG4di/Go4rQRBxFYUKvCCOMVXFpNV4ceXPzuMIwiisLkO3BXIZKeUzQIdb6fHtnR2cyG9rkIRLgQUZXShlhMKccG3it3NhbjKol65sCrIKa6yCMfxvKaadSEPKOOUvPTOe0UQhEAsiuyx9kk2INeYBTpGleZWtrdYKYA2DsX4dQh4nUKBe04yskKReyOXt4S7Jla9/XiBIfegDDCuoYPdqz5fGeBglRBMEES39aHH8k2mjGTZNMAhsiSnit2q0MryrHtl4QkFHrkpvXJhc5jLy6piMY4HFmWu781GsD70QWBRJkEQYrH4TvqLXjckuyLdX9WWFTTX7Yh8JDkpck2PTotr5XHFYrHNy3+O4MkNKOUDz3zetjaQWf/xZRrGfRIYRxDEm4ZqdBxGYSRcWgQ5Py5M7xQKCIIQicVRpbnyBbf7DKjHjN/E5RyLfSK1T1Rp/TKU19Nzh4DvlZcqf4O+NuR+UUt9t34UiULfZq/rcctDXVEKpgEOz8sLQPI6hQKHjDh0fEZpCZfbwrv3/TiOR5TkgJuO1GZwfOyT/xp65gh4ZxPD5MO+wzF+fWuKIwhCGWCcQCQKL3kjf1UzDXCIKc9HXHDKjJcvPFvD3dJqywmCyKqvkm8mMQvoBnzvhId3LilcviXsUIxvflNtt37EceSVIovFu6M8kqtLYNg9Wq/brVPOv6Oxj8vamrqH3VDV69sUUJQJw2bzecd7AxynE4LbeJ0wkr76XxlgnBjHHTLi5JC029Up0j2JzIV3vkGy7vrjuX9pW7fPiSI67ck7ncZRgAun4oOFLh+wAAAgAElEQVQB07P5vFtpz2UNAOp3R3k0cf9xBatob7Z659Yp665DMb5cAV8gEoUooNNi3+m03MaaXnfUtonhoLf7SnIIglAGGMcXCYOKsuTD+jXB97Pqq2Dile0tvVrCDj7zAS6Eve1dp6GVJU8Bs+jZxDDgQjW79UR8kPzF4u+4gDrOP76MxS0NW+XuTs0DHW+lPe9GZjh+J/0fTztZYrY7ygMdr+c21vSmppy88lI7+tSOSxAEDeM+FYwT4/jFlChZvF8Z4PBn7OPiHvBEEASO47WcthPx8kwO55MiYOERiEQRJTmWQd3+4FL/rQu5n1xdIsZx6DmvqVa+YrrxOgbpo4r2Zvmm8j9jH5NVWHZD1e6eYAWpI1kZ4HDl1VMwmDV0sK0SQuRggv3R3vUkr+HkmlI5NmrL4HsPsxP70CsOKKAMMI4giIr2ZvkGuaP/5sKbxmr5JwWXU6KACzyh4G7GCznIe0PoA6SmCYJIqSmFaBup/LUMcn6Q/RJxobytSc7RuXmgk/3rGDJ4ym6oWhvcHcoj9d/q4Hv+Bf/b51xIjpTaDCqPvXiC3FtFYnFsRYEcfbo25P6LikKhWIzEvk8KygDjCIIob2sGR2yp5DIPdLqW+ozMhZzGanksDnb2K0iDV16M4xdS5HHhz9gnxS3/WBpEYvGLikL5XHheXiAUd8cniXFxWl35tgiZpl/TAMcnhenQGAxyQcWZ60NlGvDMAhyRway8rUlxncYTCR9kv7QM/p93MoWMFkHO6XUVfSIw5E6UAcbB6c2xF/JsBJff7fGACyHFWXJeebMAx5dV/9i8u5G33KMe8srCFwld3iTKEZ5VgU5pdd37UljjAosy5ctwcHEWorYYx50y4ylsJV/uivJA+5zytiY5pj7zQKcbr2Pa+f9sCMXd7gH/xHmQO0Tlw8/98no2vWgwfVKgYdyngnGweZVlU1kdfM87LxWMB8BIvkgYXtLtF4xYTi6sD33wsupt11ktSG1le/Mp2ScFF1Mim7j/86DkCvhusk8KNoW5FDb/z71MKBYFFGZskKEfe5zz/uXYyxcJb6fHIi9y8pjBAx1MNTDsyNIcWQRZGeAQ0GP0RmLNEwpseoJwKX3C5W9RnqV9F5WCHqokME4oFgUWZcrSj2YBjsimhYTnbvoLWWdYqwKdyLojv6l2e4TMk4Irr54iWEYQBE8oQMF6kozYHeVRQuICjuMPshMlm0HNjshHlGF3CgUouk3yrmMvnhQ1dxuJQXiy6itlCc/q4Hvd7ibCf9xNcByv47TLsRPYJoajrTn03yf/KwmMw3H84RuZXNge8QgtUTBrnlB47V2MoSQX/ox9QtYP2Q1Vcrjg082F7uMFYFl9RzsKA5Ts+WxiWNfeFRoTBNHS2XE7PVayGdQcivEtb2vGe7amcEtle7Ocfe/J+CDkbiEUi54UZsjCfGYBjq/+HaxQ2FwvZ1N0Lilc0KeOHDAdZYBx8L4/LkyXZSPYEPowva4CDATvuNAiZyU6ERdI5oJ8nZbyzkIMPRe11O+LlukFbpsYRuZCE5cjx53uUIwvGH2hZ4IgajhtG0O74+gl/5kHOl5NjUaRpD067aVkM6jZEeme/G/hKWquXy/DPcAyyNn1TRLZCILG85EFGsZ9QhjH4fNupMVIlYCjsf5k5Qhar7xNpiXsYkoU2VLVfVJQnC0V820IfRhfWQyAD4QDx/GcxmpZBjnHjDiKjbea3fqXjA3ZmZchlMYEQbxtaZClIq+lRpNHwuZ3/injOHh3lAenx9+OLNC5jTVSTeVmAY4PsxPJPZPv+piyksC4HkXT+nec9CAAq4QQSVq9bW3YGCY9iOTqq6dky5NQLJK1XpoHOkmC47wm6VwwDXB4kP2SwoXmzo7NYVKcGs0CHC+mRFJUmBjHM+srpW52Vwff88x7hQAljuPt/M7rr59JfZv+jH0CXgGI9UKx6Glp3hpppr71oQ+iy/LIBEF3fWRBSWAcQRByuGCXHEHhAo7j2Q1VsrjgkZvCJyX0YfN5N17L0mmPC9/BbqCkUCyKKcuXanBdF/IgqjSXzAUxjidVl0h1rwRTHAKI0LlILH5cmC51yTQLcEztce5EDK1mt/4pW6dx30FPNOx7WQlSt6bmgY5v35kbUed9UlASGIfjeFFLvazwI/vXMS09jq1oyiKxOEAGRJbc89dw5K8s/8rBIRSL7me9lOoO1MOFfzZ4MBIcx8NL3khVDisDHJ6W5qEBo/bu75JYUe7aEu4KnsHoFjlv06WUKMrbxBMKZJ3D/v7MN7exBnXbhwUaxn1CGCfG8Yy6SkmbCqByEU490xGJxYFFmZIniRtCHz6vKCDvgcD6LTVc69K/AR/IilAkcs6U4tu+Ndw1p7GavMcFJyf/gnRJ5WsW2K0cycOAzsU4fjtNyjbaPNCpjrTbBqgaW1FIeW3gUvJNg6MWu+QIyfbrQu439l3CJPLrpDwwTozjTwrTJU8KzAIdU6pLpXJBqvowD3Qi2zxgslXsFqkeMDdex0jrWWwn7UBzdfA9SS7gOO6dlyrJsvUhDySPonAcb+VxpW51jjz3R8dzSMzSassl36buJBS5KZS3CcfxKnaLVFPQ2cSwLmcaMtP7qqw8MA7HcZ98KVxYG3I/TeJAEMfxNh73VroU17RDMX7I8QNxIaOuQpILEOkiyYVqdqttkhS/b5vEUEkutPO5UpH60ef+RS31FDVFEERDR7vU3enZxLC2f6MNMY77FaRJwnqzQMfXtVJ0WjW7VerW9FpqtOQL0ifyoyQwDmIXvHJTLUlJr+B13hTmklxTKoULXLZUS9jZxFCKDUyM448LpOu0VzVSdFoNu1WqO/XVV08lucATCnZFducipfzbF+2FzuLJnGrmdmyR5iFnmxRO2ZriOO4lQ6dlSHub8ppqJU19FkFOTpnxlJ7J4/mYMg3jPiGMg5MCSdfdA898yEdRZP6VtzVJnhTYJUdIppqUqpg2hj18VvaP5zu5W4Ig8ptq90rYqJ0y48leMuiWlk6OpCP8uaRwWdlu6jvaJN2t7ma8QB2igkgsPhD9TyZk9L4deOaDbO+oJRTetjZIAg73nGRKs766VB4YB8IjGTh2Lim88Z2jN2XW9R3tUriQLoULBEE4vEuSibiwOvieJOCDR5S2NUpy4ZEMLtRx2ndEUENWbXpCoSkDBmSfUlNKUdaWQc4P3yRKNm7u5Eiagn6P8ZW0IMJuJLQ4m3ICuD70QejbbMme+6RGeWBcD8Rh75AIHLZ+GSp1pjiOp9aWU7hg0eP4KNm+ubPjpkQ4giydJsZxSd/29aEPyL5K5EfEVxZTYgPNAx2981Jl6YfHBekUwGER5NzjGUzdJDd36zTqId35pIjmzg7yAFD5fhb1KG110D2pkoZu+ZiC8sA4OGBBqWuRfrie+ozsq0Oe7JPCDMt/uwNZBDknvvMCIrds6ezY/4yaD6h7ZSF5AZHbP5Rw0rAMcpZlEH1RUUg5vTENcEDOeeRuAa365r9Gs4OCRZBzdsM/ARzk9lJ1GqR3IDeDcju/0zGTGma0O8qDcmIgeeMH19Aw7tPCOLznpIDsursq0OlB9ktZDBPjuG9+GtkGsynMJbI0V2r78rYmsvXbNMDhXFI4+eyVfJdYLL6bEUd2n9oZ6Z7aE71IbobKAUUZ5FdiXcj9uMoiOZuJ+1kJ5FdiU5hLFyRFvZELKTWlZFP5qkCn6LI8yd0V3MITCe3/fYizJdy1va9jDNHwlArGEQQRWJRJjo0H33w5XHiQ/a+1Z2PoQ1kLTyOXTbGpOGfGC3r8zRE1UIEvElHwkxwu8IQCn/zX5GFbBjmTnfNQt1Bo4nLsXz8jx77si/aCAFVKSxzHE6qKyVFmFkHOLm+SKM3QZRW75XRCMBJj0wCH0wnBNf+2EKPGH19QKhjHEwp9C9LIXLAIcpZzptPUybmRFkPmwt6nXqXSXmEcxxOr3m4lhSOsCnJ6mC0FdgNJq3oS6JC5cDI+SBYXOALeheRIlDcVvuqB/GsledTK66AkVLJLjpClAwMKqTotXrZOa+KyN/47jcWd9FiusC9zxZGno1QwTozjbm+SyXEe2yLcXlQWkQdMLrfyOtCHVWAVOJ8UIcv9tFunvcuLuzLAYW3I/bgKmStLE5dD4cLttFhJxx4YjEgsptgF/3rxRNYGAMfxirZmivDYJoWT54XKnUKBd34q+W2So9NwHE+rLd9B8j82DXB0yIhDvfV5gYZxnxbGEQTRxOVcf/0MScCuSHf5nwCqbG/5M/YxvAymAY7WL0NlfXFF3H108hqdFPQAvhw5IlLc0rDtnWyZ9+SOohi9yfe28bhkP1+75EhZphq4q4bTitAqeE1RnAZQ52Kx+FT8//JGHo8LaJBhXgKbSlZDFbITmAY4PC5IR131eUHZYFz3Fz5IJoTzyRGy1j8gRV1HG+LCygCHe1kJchYet5xkhLy3RzwqbK6TPDGBbnEcf9NYvbnnQzTwVQ//gjRZxMdxvLilgZzK7lJKlKzGYJCLqyxCURdmgY6uspFZI5d9NTUavU2/RXlCokGp/eM4HtCdU+qfeMb1ITKNQFJvf99KpYJxOI6/bWn4/ZkvYnGvXIivLEZcMA1wcJFmEAWaNHE511L/p9N2R3nI0Wk4jgcV/S+ecV3IPxm8ZJH3ZdVb5F65Ovie65skWSsx9IA+MLgywGFj6MOY8gJZ+5w2Hve3qP+lfr2QHEnx+qAMiXyUtjXcLbuhStZuk3LjB1wqFYwjCKKsrQkhM7NAx0spUbIMZjDZsLf/c03bEPowuixPDhf+vbJEyF9ZyE4aW8PdMusr5XAhvrIIpV5aHXwvrrJITmOugO9NysaFEm9Jsq/bZbC5nqzTLr+Sp9NaeB130mORmtoc5ip1Xyr5oA+roWHcJ4dxOI7HVRYhbC7rKArxr/u0ND8NTgrWhz6ILJGHzGrYreAdYtqTlVHWoSd0LsZx53eB1uSYavRoSuFp6T9f59wU5vK0VOZrCXcJxSL05dPdUR65jTVy3p+Ud8lE1vQkT0ee7JQBwGUbj4tc8g9E+8jaaku9930rlQ3GEQQRXZYHKzHYZWUpR5ipUCz2zP3ny6ddniJvGqrlcKGivRmSxQDslgybIFOvjdd5910Kpf3R3vI1b4eA75n7alWPe82G0IeyDkFQ/82dnMspT0HrbY94JAeq4jgeW1GIdiMeuSmoE6mFOk4bslgfe/FE1nm01Hvft1KpYBxBELBKwaq2IfRhr2c6zZ0dV179A5G3hrvJ58KLiv8h70c5vXKh/e+4QDDI/Rn7WM62rXvYQv65pH++oXnwmQ+KVpbFDja/E/kenE/qBRNEvdNpmxXQafUd7QA4enL6d6d4lTWGj69XNhgnxvFHOSlgNtsa7hpbUSh/jmw+D6Gcc0nhNXLdT5+SdFpUaa58ndbIZSMu3E1/0dqTtlrWYFo7uSitifXL0EYZZ7VwO47j+aRsXOTEW5L9dwj4Ht06rfuzbxtCH8pyi0I9J1WXoFRccs7fJB/0ATU0jPvkMI4giFYet/ukINBxW4SbfMECFjZ0sME17XhcoHzdgfc4jZoFOq4Jvh9dRo3HkRSIGnbrxlCXntxR0ezevs7LFfDBQ+JsYpgsCzl6RPfuv7Vh71MvwATyO2/jccFr/nRCsJx9PHQuxsUpNaU7It1NAxx7vqDal58xQeOHghLCOMQFm5eh8o0HYNkqaW3cF93NhftZCSihEWWacMkTCuBr93ueesrf40K4SWpt2c4eLgQUZsg3kOA4nttYc7jnu0Z3M16QAxKljgTH8RcVhXBailJAS20Jb9P5pAizgO63Sb6FAAgSXJzV/T3ZQKfwt29k9dkn9coG43q+jlALx0x30mPlb5aQWRQgsndeqnyavJdOw3EcIuvNAx3DFOBCel0FfNHyYXaiVP90ytieVxSsDHDYHOYaUZIjHxOgt0mRpDM9mUrSexIme0j1wacM42MulQ3GEQRRx2nfHvHINMDxbGKYfE0CE3/RE762KcwlvOSNglzoWVn+l3RGKgG7g2GLMiBtdUp3JATV65F8l7A7Z2ThmuD760Lux7zLSkhuQClzBXz3nO4vRnR94ln+Pqcn4UPN4Z6PLd3NeCF/ggRBtPM6r6c+Mw902hruJn/fQhnSB1zSMK4/YBz49GwOd31cqNCBYM8xRLdTFMpqLYe1rZ3cnZEef8Y+luUxQL4Xx3H33JSt4W6UmGpyG3I5rrJwc7hreMkb+S8P3MIV8D3zXu2P9k6vq5B1PActRWJxUnXJjohHwcVZsvyxyMNo6fGqhpz+8nsm3/UBZSWEcQRBJFQVbQ5zCXurGBeE3ScF+6K94OMZcoiA43hhc93BZ77OWQnsdxks5bRv7TGLduf0b23slQudQoHLm6Sdke4Fss9qyc/i8Hk2L8N2RXn0umCAeXtTmEtAUQa5B1nlNh73wDOfg8985JsbZd2ueL2ywThIA+b2JnlnpHt+U22vLIOvAtomhivIhfjK4s1hLk8KFeXC789890d7K8IFgUhkmxi2LcJNzok5mS9sfuffLwKsEkIkQ6fJzaD8oqJwS3g34OtVp+E4Xt7WdDjG71bac0roq2S3H1mjhDAO7wnvXRtyP+FdCl/5c+QIeH+/CDgVHyzLC4h8e3xl0eZwl3AFdFq3E1t78+EYvxvdycN7MYhCIn3bpHDb3iyCMBgEzpwy42V5AaFhdwoFD7MTd0a6y/E/QY1xHE+uLtkR+ajXHRG65YMLNIzrDxjXo0+FDhkvOAp/haNTIDifHKEIxIGUOS8V/sZfG4/rkBmnyB63x/LR4ZmbIt+OjYQPbNSRJTm9Akocxxs62JElOeVtzeh2OQWIFHlZVSzfCCSnBwV/Uk4Y18bjerwPFwqa6yJK3sB3b+VPnCvkx1UU9gr4oBMcx1NqShMqFeICGOSeluahRJryRwKO87LirCn38oTCO+mxvapdNOynZXkvKmQ6aFM6/+BLJYRxYJB7Wpon3zqOpgwvmuJcuJvxoteXHXEhupsLvZzNoZGUtDY8ykmW4xKAWoKpOLO+MrIkVxGo2tLZ4Zn3SkGdxhMJE6uKk6tLFOmZPKT3LSshjINz+Wup0QouFmIcz6qvDH+bowitWt9Hp/FFwsTqt4lVbxXpGWwE8r3iyNwRiLqzQxe3NPTa+T86rUxRncYXCu9nv5QVCk0ew0eWaRjXTzAOPpzaq6CQ2dmr2RY1VrwlHJ0o3h7HccUbQ+dixb5xhOO4gi1hmmIcV1CnI7J8QEE5Ydyn4wIEkShO2Pfiglgsfl+BV7y96H06fy8Z/gCxgVuUEMZ18/d9CPW+auqTcuG9uKb4O6J4S2Brt8wrptM+WHKU5JuqUsevJFx4r/XivdTUe70jn/Rtkkp/RSppGNd/ME4RftBtPi8FlBPGfV6a0E9XkALKCeMUHDzd7PNSQDmtcZ+XJvTTFaQADeNoGKegqHwVzWgY91Ww+dNMkoZxn4auX0WvNIz7Ktj8aSZJwzgaxn0ayfoye6Vh3JfJN6UYNQ3jlIINX+YgaBj3ZfJNKUZNwzgaximFICrJIGgYpySM+BKHQcO4L5FrSjJmGsYpCSO+xGHQMI6GcV+i3H6qMdMw7lNR9ivol4ZxXwGTP9UUaRj3qSj7FfRLwzgaxn0FYq7wFGkYpzCp6IZUCtAwjkoR+lphCtAwTmFS0Q2pFKBhXDeMW+L7V0FTLV8kpP995RTIbaxY7rvpcKjh6ahuwej13/7gYTtCf0+rK/3K6UZPny8SeuYmrn+y/O+Igb2KDTTYF2w0z+tvmnQ0BfgiYVJ18QLPdQpKzukonb0h4w7HOFWxW2jq0RRwfROzxn/RXxF6isuPnJb/9/5/2PvfQr3DKkpXzpgU+WnOo9VLvPfT/2gKLPbeu8Jn2dGwQYqIzekond9Dhqzw+XWx9z6adDQFFnnvtfSbfVxhGPd76JB5HhtputEUWOK9f7H3vmVeSxRUO6ejdPaHGM/z2ESTjqbAEu/9C7x2bXg8U3HNI1/MqABLgWulgHF/hBkcDBlK/6MpcDBk6B9hBvKlnPzrqUido2GDaLrRFAAK/BWudyqydyMuEqFDoYNp0tEUAAoovns8HaVzIkL3cKghTTqaAj0UGNJXprjTUToKwDZqE6WAcUir0gWaAjQFaArQFKApQFOApsDXSQEqRlPgmoZx77F3/zqlip41TQGaAjQFaArQFKAp0A8UUAC2UZvQMI6GcTQFaArQFKApQFOApgBNgc9PASpGU+CahnGfn239APDpR9AUoClAU4CmAE0BmgJKTgEFYBu1CQ3jaBhHU4CmAE0BmgI0BWgK0BT4/BSgYjQFrmkY9/nZpuSbA3p4NAVoCtAUoClAU4CmQD9QQAHYRm1CwzgaxtEUoClAU4CmAE0BmgI0BT4/BagYTYFrGsZ9frb1A8CnH0FTgKYATQGaAjQFaAooOQUUgG3UJjSMo2EcTQGaAjQFaArQFKApQFPg81OAitEUuKZh3Odnm5JvDujh0RSgKUBTgKYATQGaAv1AAQVgG7UJDeNoGEdTgKYATQGaAjQFaArQFPj8FKBiNAWuaRj3+dnWDwCffgRNAZoCNAVoCtAUoCmg5BRQALZRmygFjNsZOGZbwDf0P5oC2wIm7ws2Phmpq+Cbdjxi4N5gY5puNAV6KDD5UOjQk5GKbsxOROpuC5hAk46mAAjPvuARCqqd01E6x8L1dwSMp0lHU2BbwDfbAyYdDh16SmHNI1/MqBhNgWulgHGz3X/b//Ten89d6X9fOQX2Rjks8159JMxQvqCjXw+EDDP12/hbpMNXTjd6+n8+d90Qct3Md9HfEXpIPOQXDgQPM3E/QJOOpsCfz113RzrM81glX2DIv+4NHrPM969Dzx7Q1KMpsC740mr/uX8prHnIgiRZVgC2UZsoBYxb6vv329ZGgv776ilQ1FKz3Hfz4dDBksIttWZ/sNHOsEPZDZVfPeVoAhA++SkbAlYoDuP2BRvN9zpOE46mAEEQqbWlC7zWS1UyUiv3hYz/47lzQwebph5NAY+cF2sfL6JhHA3j6HehmwI0jKPl4IMpQMO4DyYdfSMN42gZ+GAK0DCu25GFtsZ9sAD9x26kYdx/jKH9OR0axvUntf9jz6Jh3H+Mof05HRrG0TCuP+VN2Z9Fwzhl55ASj4+GcUrMHGUfGg3jlJ1DSjw+GsbRME6JxbPfh0bDuH4n+X/ngTSM++/wst9nQsO4fif5f+eBNIz7EBgnFovZbHadAn9NTU18Pr+4uNjPz8/T01MoFCqz7PB4vJSUFDc3t/T0dIFAIGuoOI63tbXV1tbW1NRUV1dXVVVVV1fX19dzOByxWEy+SyQSeXh4+Pn5FRcXk+v7qlxdXR0YGOjm5sZm942rb//AuJaWFgVkp66pqUkkEpWWlrq5uQUHB7e1tfUV3T5RP8CL169fy+lfJBI1NzeD8FT1/NXU1DQ2NnK5XIrwVFVVBQQEPHr0qK+YSxlVTU2Nm5ubv79/c3Mz5acPu+wHGCcWi1tbWxURnsbGRrFYnJ+f7+bmFhsby+VyP2xS/XMXl8uNjIx0d3fPz8+X/8T6+nqpwoPjOPnG6upqYG5LSwu5vq/KFRUVbm5ukZGRra2tfdJnP8A4oVDY1NSkiPC0tbWJRKKXL1/CHPtkgp+uk+bm5pCQEDc3t5qaGjlPEQgETU1NtbW1sGZVVVXV1NQ0NTV1dnZShAeYGxUV1VfMpYwqPT0dlkVK/Qdf0jDuQ2BcR0fHrVu3TBT4W7duXUZGxqNHj4YNG6arq9vR0fHBrOqHG5uamn7//XcMw6ysrOSsnVwu18rKavr06ZMmTRo1atSIESPGjh07f/78U6dOJSUlkefI5/O1tLSMjIzc3d0/xfgjIyMnTZrEYDBKSkr6pP/+gXEHDhxQQHZMtm7dWltb6+XlhWHYtGnTCgoK+mSOn66Tb775BsOwY8eOyXlEdXX1/v37p02bNnHiRBCeCRMmLFu2zM7OLj09nbzPiYiImDBhAovF6ivmUkYVExODYdiIESMyMzMpP33YZT/AuKamplOnTikiPObm5iKR6O7duxiGWVhYyF/hPmy+fXhXbW3tggULWCzWnTt35He7cOHCqVOnTpgwYdSoUSNHjpw4ceIvv/xy5cqV3NxckUiE7n369CmGYSNHjszOzkaVfVgICgrCMGzevHm5ubl90m0/wLjKysqtW7cqIjy2traNjY3bt29XUVGZN29en0zw03WSkZExY8YMDMOePXsm5ylZWVkbNmz49ttvx48fb2xsPHLkyG+++WbVqlW3b98uKioiax5g7sKFC3vdVMh5nJyfTp8+rampaWRkJKfNe/1Ew7gPgXEcDufcuXPDSH+GhoaMnr+BAweSqofNnz8/JSUFYNyAAQPIEOe9+NQ/jRWEcWw2e9OmTRiGDR48+Icffpg/f/4PP/wwfPhwFRWVLg375MkTPp8PA+4fGIdh2Nu3b/uERP0D49auXUsWEj09PRUVFQzDDA0NyfU///xzZWUlgnGfSKf0Cd2gk8mTJ/cK40pKShYtWoRh2LBhw+bOnTt//vxZs2YNHjxYRUXlxx9/TEpKQuMBGKempkbDOEST+vr6PXv2kIVEX18fwzAmk6mvr0+unzVr1n8Sxuno6KioqAwfPhyE5/vvvx84cCCDwVi4cCFZePoHxs2dO/cLgnGlpaXLli0jC4mOjg6GYaqqqoMHDybXHzlypK6uDmDc3LlzkfgpZ0FBGPfy5cvp06djGDZx4sR58+bNnz9/xowZenp66urqFhYW+fn56DQAYNyiRYs+kcoFGDds2LC+oicN4z4ExgmFwszMTB/S382bNwcMGKCtrX3w4EFStU94eHhDQwPAOG1t7f8YjFu9enVcXFx2dnZqaqq3t/fcuXMZDIa5uTk6QkUwzsPDo69EltwPWOO+OBgXGxtLFpIjR44YGBhgGHzi3YoAACAASURBVGZvb0+uj4qK6ujo+IJg3MSJExWHcVu2bMnIyMjKykpKSrp37x5oWAsLC8RfBONKS0tRZR8WvkRrXGdnZ2JiIllITp8+DZj41KlT5PqQkJAvC8bNnz9fEWucjo6Opqbmb7/9BsKTmJh47949IyMjFou1c+dOdIbQPzDup59+ysnJ6ROZ7AdrHJvNjoqKIgsJALWRI0fevXuXXJ+SksLlcuHXOXPm9MkEP10n7wvj7O3tQXji4+MvXLgwZswYVVXVy5cvd3Z2wiD7B8YNGTKkr2hCw7gPgXGS1C8uLjYwMNDX1/f09JT8FWCcpqbmfwzG7d+/H7meiESix48fMxiMyZMnP3/+HIgAMG748OE0jJOUClTj5+dnbGyMYVhhYSGqRIUvCMaNHz9ecRh3/Pj/Mt/yeLwzZ87ARgidbgCMU1dXp2EcEgbJwrNnz8DA8PTpU8qvXxCMq6mpmTdvnoIwTltb28bGBk1WJBIdO3YMw7C5c+eiN4iGcYg+cgq3bt1iMplTp06trJSSwPxLgXHp6emKHKoia1xYWBgyvDU2Nu7duxfDsFWrViFPuP6BcYMHD5bDmvf6iYZx/Qfj1NXVORxORUWFs7Pz2bNnHR0di4qKyP4c7e3t8fHx/v7+paWlQqEwJibm3LlzNjY2ERERZA/lN2/e3Lp168yZM1evXgWDDcVDk8/np6Sk3Lp169SpUxcuXAgICKirq5MqFkKh8PXr19euXTt16tTNmzdjYmIOHDjQq28cOlQlwzgcx1+/fs1kMsePH49WFD6fr62tLRXGicXiiooKDw8PGxsbW1tbT0/PhoYGqYPkcrnx8fE3b960tra+fv16cnIyegmlWuNqampCQ0M9PDzevHlDoYzU/smV/XOoSn4iQRAKwricnJzc3FwHBwdra2snJyeK5uVyucHBwU+ePCkpKeFwOFFRUbY9f7GxsehxEMJib29/+vTpq1evxsbG8ng89CsUBAJBQkLCjRs3rKysLl26FBoaKmvvIRaLk5OTr1y5YmVl5ejo2BXHM3bs2A+DcQRB3L17d9CgQUwmE8XWyIdxxcXF9+7dO3PmjJ2dXUBAQH19PWUicNnW1hYdHQ0SfuvWrbS0NHTiL9UaV1VV5ePj4+3tnZWVJbVDOZX94Bsn+XTFYVxmZua1a9dsbGzc3d2rqqrIXbW3t4eHh4eFhdXU1HA4HH9//9OnT9vZ2b148QI1EwqFsbGxly5dsrKyun37dkpKCrJeoDZtbW3Pnz+/du3ayZMnL1++/PTpUw6Hg34lFzo6OmJjYy9evHj69GlHR8eUlJS5c+d+GIwjCMLZ2RnDsB9//BHZxuTAOJFIlJ+f7+zsbG1tfeHChbCwMMmJwFDZbHZ4ePjly5fhjcvLy0PqGlZ6sjUOFJq3t7eXl1dlZeX7ap5+sMaR6Q9lBWEc6I1r167Z2tp6e3sjkyd0Ul1dHRYW5u/vz+PxWltbfXx8gLA5OTmIXBwOJzo6+uLFi9bW1nfu3ElPT5ccDIfDCQ8Pv3Tp0unTp2/cuPHy5Uvyqkduz+fzw8PDbW1tra2tPTw8QkJCwJYv3zdOKowTCARnzpzBMOzXX39FJgk5ME4oFKanp9++ffvUqVOXLl2SJeE4jtfW1gYGBsL74uzsjDYYBEHAoaqhoSF5UpmZmb6+vo8ePZK1WJMbU8o0jOs/GKempnbt2rUBAwaoqqoymUxVVdUhQ4b4+/sj80NhYaGZmRmLxepapDdv3sxisZhMppaWlo2NDbwPXC53586d6urq0AOTyWSxWNOnT3/z5g3ia2pq6s8//6ypqUluM2nSpMDAQLRAQuOmpqZjx47p6ekxe/5UVVW1tbUHDhz4YTBOJBK5ubnB+4BcChCMoxgpOzs7Hz58OGLECDRIVVXV4cOHe3l5oYlAIS0tzcTERE1NDbVUU1ObMWNGSkoKQRCSMK4r5vHw4cNqamrff//927dv31eZKi2MGz169I4dOwwMDIAOqqqqhoaG/v7+iFx1dXXDhg3T0tKys7MDIQG2BgQEQJvy8vJt27Zpa2tDPZPJVFdXX7BgQWpqKuokMzNzxowZZGqzWKwxY8aQvY6gMZfL3bJli5qaGupNX1+fyWR+GIwTiUR//PGHmpra4sWLEcsAxmloaFCscR0dHba2toD5VFRU4FWaNm3as2fP0LJBEIRQKAwKCpo2bRoMElpqamr++uuvGRkZBEFIwriWlpbFixerqqpOmzaNAnQQieQUlBbG/fLLL5aWlpqamsAsVVXVqVOnxsTEoO1Qfn7+hAkTRo8efevWrZ9//llNTU1FRaXLX8rNzQ3mm5+fv2TJEtBIQEl1dXVzc/OysjLgl1AofPr06XfffUduo6am9uOPP758+ZJCtNLS0g0bNmhoaDCZTMQXHR2dD4ZxO3bsUFFRWbduHdpyyIFxJ0+ehLcACc/kyZPT0tIog3R3dzcyMoLXDU3ZzMwM4polYVxdXd3SpUtVVVU3bdpUUVGBxJjSraxLpYVxU6dO3bt3r7q6OhKecePGkd1Vg4OD4VzyzZs3P/zwQ9cBpYqKipGRUWJiIt7zV1BQsHDhQrJgsFgsS0tLMl7x8vJCywFQm8ViLVmyRPI1LCgomDt3LuKLqqqqnp6empparyEOUmFcTU3Ntm3bMAyztbVFqFEWjKuqqtq3b5+uri6SW3V19SVLllBi8zkcjrOz8+jRo9EgmUymjo7O9u3bQZUBjDMwMEDCkJGRMXv2bFVV1dWrV7+v5BAEQcO4/oNxXc5P6urq06dPP3HixJEjR6ZMmcJkMocMGYJeiYKCghUrVmAYNmbMGH19/fXr1585c2b//v0JCQkEQTQ1NS1fvhzDsKFDh65bt+7s2bP79u2bOHEiiAja3yQmJpqYmAwePHjZsmW//fbb2rVrR44cyWQyJ02alJ6eDiKC43hDQ8ORI0dYLJa2tvaCBQvOnj174sSJ6dOns1gsxWHc9u3bi4qK6uvra2pq/Pz8RowYMWnSJB8fH7Q88Pn8AQMGjBgxgozPcBx/9OgRi8XS0tL65ZdfLl26dPHixR9//JHFYhkZGXl6esJiLBaLIyMjtbS0VFVVJ0yYsHv3bhsbm927d48bN87Y2Bjc78gwDsfxjo6OmzdvqqurjxkzJjo6mryooxdGfkFpYRyGYVpaWvPnzz958uShQ4dGjBiBYdjkyZNRIF5tba2BgQGDwZg0adKQIUM2bdp08uTJzZs319fX4zheWVlpbm7OZDKNjY23b99+7ty5AwcOGBsbM5nM2bNnJyUlgWAUFhYOGDBg+PDhP//88+7du01NTYcOHcpgMIYNG0Y2/rW0tICgDhw4cMmSJVZWVocPH544cSIEasiPVEUhDgcPHqzv+SstLbW3tx8zZszEiRPJNjCpMK6jowOOX7W0tFatWmVvb29jYwNA39jYOCkpCWSPx+M9evRo8ODB6urq33zzzeHDh8+fP79t27Zx48aZmpqCzYYC49rb2w8cOKCurj5kyBDyMOQLDPlXpYVxDAZjwIABixcvtrW13bt378iRIxkMxs8//1xSUgJ8z8/PHzNmjJ6e3ogRI0aNGnXgwAEbG5s1a9Y0NzfjOI7WmBEjRuzZs8fW1nbLli0gPD/88AMY0XEcDwoKGj16tLGxcRfW2bNnj5mZGYRfrFixApkicBwvLy83NzdnMBiDBg2ysLCwtbU9evSosbExg8FQEMZpaWkdO3YMhKesrOzy5csaGhrff/89eTWVCuP4fP7BgwcxDBs0aNDatWuvX79+6tSpyZMnMxgMIyMjAPcEQfD5/EuXLqmrq6upqU2bNu3IkSPW1tbr1q0zNjZeunQpaBUKjOvs7NyzZ4+Kisr8+fPJ+yKyeMgvKy2Mg+iZ5cuXnzlzZsuWLYMHD8YwzMTEBIGewMDAkSNHYhj2/fffGxsbHzx48PDhw7a2thAcXVJSYmxszGKxpkyZcuDAAVtb2/Xr1w8aNEhFRWXZsmVIqzg5Oenq6o4aNcrS0nL37t2LFy/W09NjMBi//vorUuM4jmdlZc2aNQuEZ+3atba2tjt37hw5ciRoHgWtcZ6enrW1tXV1dYWFhSdPnjQ0NPzll1+KiooQgyRhHFjX9uzZw2QyDQ0Nd+/e3RVSfeLEifHjxzOZzMWLF2dlZcGrxOVy7ezsVFVVNTU1f/jhh2PHjp09e3b16tXDhw/ftGkT7AEAxg0aNIggCBzHS0tLV69eraqqOnfuXIqlEw1JfoGGcf0H45hM5rFjx9ApQ2Ji4syZMzEMO3/+PDAJwThdXd0HDx5AJY7jYrFYIBAA78eMGRMXF4eYWlhYCHF/ixcvhqMBgUAAR0KwnonF4vj4+O+++64LB9y6dQtOlPh8voeHh76+vqGh4Y0bN+CFxHH8zZs30Jv8hCPoUFVbW3vMmDHjx48HfW1sbOzo6Nje3o6GJxXGgd1IU1Pz999/b2xshMY8Hg+iX5cuXQpvVGlp6dixY1VUVJYvX04OB2ttbU1OToa7yDBOLBb7+fkNGjRo+PDhDx48kHVQgsYmtaC0ME5PT+/s2bPI7J+Wlqavr6+jo3Pu3DlQHwDjAOU/fPgQTLywGxaLxWfOnGEymfPmzXv58iUC2fn5+XPnzlVRUTly5Ajq+e7du3l5eYg4YWFhgwYNYrFY165dg0qhUHj27FlNTU09PT0HBwd0RpmZmQkefgrCOG1t7fHjx48bNw4MwBDjTD7kBRinqamJrHE4jgPHNTQ0Ll26hPR7YWGhhYUFk8m0tLTs6OjAcTw9PX3KlCkaGhq7du1CphEcx6uqqvLz84FiZBjHZrOvXLliYGAwbNiwyMhINP33KigtjDM0NHR0dASREAqFT548MTY27sIo4eHhQEOAcRiGTZgwAfY/oHYIgmhsbNy1axeLxVq6dCladMVi8bNnz2bMmMFgMJCbGiRxLC4uBgETCoUBAQGGhob6+vp+fn6o8vz58wwGo8v45+PjA+zGcTw1NRUW+14TjkBwpa6u7rhx48aMGaOlpYVh2LfffhsREYFEkSAIqTAuNDRURUVFR0fn+vXr6GiiuLgYdtRr167lcrk4joeEhIwYMYLJZO7du5ecU7CwsBBRgAzjOjo6Ll68yGAwpkyZEhIS8l4ygxorLYwzNDR89OgRkEssFjs5OWloaGhpaYWFhcHgEYwzNjaGQxKCIMRiMY7jHA4HIldWr16N4t4IgoiPjzcyMtLV1bWzswMJbG9vt7OzIy8H169fHzRoEIPBQDvVpqYmEMXx48fHx8fD00Uikbu7O2xrFYRxBgYG48ePHzt2LNgIFi9e/OLFCyQPBEFIwjhYVcFByNfXFyRNLBanpaXNnj1bRUXF1tYWEFhMTIyWlpaenp6VlRXscACrVVRUIArAUq6vr4/jeH19/dGjRzU1NWfNmvUBXkBABBrG9R+M09PTI0OcrmyEv/32m6qq6sqVK4EZCMZt2LCBkus1Pz9/9uzZGIZ5e3tDY/R/cHCwqqqqgYGBZPorHo/X3NxcU1Nz+PBhDMNQJFd1dfWqVauYTOahQ4eQqIHBT5G8cQjGGRsb//rrrxYWFmZmZnPmzDEyMvrpp58cHByQtZzP5+vo6FCscTdv3sQwbOrUqZSDjKysLDAFwRzPnz+vpqZmYGDw6tUrNFlKgQzjYmNjwYp57tw5BEoo7Xu9VFoYN336dEreuHXr1jEYjC1btoAeRNa4NWvWkMEQQRDNzc1Dhw4dNmyYi4sLwnBw7Ojv76+urj5v3jyK/QnHcS6X29TU1N7evnDhQhUVlY0bNwL1CgsLYftx+PBhBKTgJ3A0VhDGjR071szMzNLScuXKlbNmzRo2bNiiRYtcXV0R/o6IiJg4caKWlhaCcRwOx8bGhslkLliwgOx+hOO4i4vL0KFDtbS0SkpKeDzetWvXMAybM2cORcbIAoBgXFJSkqen5/jx4wcPHuzs7EwmEbl9r2WlhXFmZmbV1dVo/OXl5WvXrsUw7Nq1ayAqAOOYTObZs2cp9oDIyMiJEycaGhqmpqYC/IV+xGKxlZWVlpbW2LFjyfWwaHE4nMbGxoKCAktLS/KDamtru+IiYfuBzDkEQdTW1i5evFhBaxyTyZwwYYK5ubmFhcWKFSu+//57PT295cuX+/r6IrUpCeO6kiGvWrUKw7AffvgBNYO5PHz4EMJEXr16xeFwduzYoaqqOmPGDEozREC00v/000/p6enOzs5qampGRkYPHz6kvBHkW+SXlRbG/fTTT+Q3gs1mDx8+XE1Nzc7ODmaEYBza6aGZRkREYBhmZGRENpTCr9bW1l1BXZaWluQFCPAfh8Npbm7Oz8+fOnUqhmFOTk5wCygEDQ0NX19f9AiCIDIzM8FOoSCMmz17trm5uaWl5a+//jp16tSRI0euXbs2PDwcbQMkYVxzc/PmzZsxDNu3bx/ZDZfL5V69ehUMaXCqtmLFChUVFXNzc8njYDRmgHF6enocDufq1av6+vpTpkwJDw8nQ0nUWJECDeP6D8YNGjQIuW4Ab06dOqWlpYUiuhGMu3PnDhIpaOnj4wOGazs7u5v//gNDy8CBA9FGUCwWZ2dn3759+8iRI7t27dq7d++cOXMwDDM3N29rawPT9KBBg8Azj/yKvm/euK1bt+bn5zc0NNTU1KSnp9vb248bN27IkCF37twBo6NUGLd8+XIGg7Fy5UoK2mhsbJw1axaLxbp06RKfz1+2bBmkg5KjGRGM8/f3By9XExMTsnlckXeA3EZpYdyMGTMoufFOnDiBYdjq1athOQQYp6qqam9vT54ReBBCToojR478W3Zu/vHHHwMGDJg0aRIc3BMEIRKJMjIybt68efjw4Z07d+7fv//bb79lMBjLli2Dbt3d3YcNG8ZkMinj6XrQe8G4/fv319bWNjQ0VFZWJicn29jYdKEofX19lClaEsZVVFSsX79e6qF/UlISPD0wMLC9vX3FihUMBuPw4cMUUEKmDMC4YcOG2dvbf//997CowBk0uZniZaWFcZaWluT0vy0tLRCdZ2VlBaAZYByYzciYTCQS3bp1S11d3djY2NbWliI8mzZt0tLSYjAYSFlBPpQrV64cPHhwR88frK9WVlawgw0MDIQtHJI3IO97wTgtLa2jR4+C8FRUVCQlJZ05c0ZbW3vcuHF+fn6gLiRhXGNjI0RSnzhxgsLTqqoqMGO7u7vn5eXNmzcPw7ALFy5QmpEvYaX/8ccfra2twQi9YsUKMjAlN1akrLQwbsGCBZTxg+/NX3/9BfUIxlH2mQRBgPlg8ODB165dowjPzp07MQxbvHgxcqSGqL4LFy4cOHAANM/QoUMxDOty+IE955UrV9TU1GbOnFlbW0se0vvCuEePHtXW1jY2NpaVlT1//nzv3r1dq+eUKVMQ1pSEcZWVlbCldHBwIK+YAOiHDh2qr6+flZXV3t6ura2to6Nz/vx58ntEHi0KcRg4cKCnpyfkWz1+/DiKk6U0VuSShnH9B+P09fUpMA60j4mJCbAKwTgPDw8U9wA/3bhxAw4udSX+4JRh4MCB4eHhBEF0dna6ubktWLBAT09PW1t76tSp3377ra6uLoZhK1asaGtrgwMRDMOmT5+OTNPwlPeFceRIVYIg2tvbIepn4cKF4A3D5/N1dXUp1rhJkyaxWKxdu3ZRBLS1tdXU1BTDsBMnTtTV1QEsO3ToEKUZ+RLBOPh+gIqKyujRo588eUJu815lZYZxyCYPM4KEYZaWloCYAcaxWCxXV1fKlO3t7SFD7IABAyjio62tzWAwvvnmm8TERNgKOzs7z549W09Pz8DAYNq0aZMnT9bU1MQwbOHChdCtnZ2djo7OkCFDKOrsfWEcOeEIQRCtra2WlpZMJvObb74BWAB2ILI1rqCgYMmSJRiGOTs7I+gAo8rPz//pp5/Ac6ClpWXKlCnq6uqXLl2So0wBxqmrq4ODC9hjMjMz5dxCISzl8kuBca2trfv378cw7OTJk2QYN2LECLQVhKl1dHRYWVlBhlgdHR2K8GhqajIYDBRc3NjYeP369ZkzZ2praw8ePHjmzJkTJ04E4Tlx4gRYtmxtbTEMmz9/fkVFBZl67wXjKAlHCIJoaWkxNzdXUVHZtm0brPGSMC4nJwd2wvfu3SM/GrYuampqXZlg7e3t4+Pjp02b1oU10aEhpTFcwkpvYGAwePBgiOz59ttvJc9DpN4rtfILgnHff/89i8U6evQoTATBuKamJsrUwINWRUWFIjm6urpwGr506VJYKVpaWv7+++8pU6Zoa2sPGTJkxowZ48aNA0ftU6dOweJy9OhRDMM2bdpEOWx5XxhHTjiC43hubu7ChQsxDDt8+DCMXxLGlZaW6ujoDB061MfHhzLHmJiYiRMndlkckpOTCwoKYD9ACemj3ALWODU1NQjtZzKZZP9RSmNFLmkYp4wwTvLrq1evXh04cOCAAQPiZPwlJiZ2vQlisdjHxweWpV27dqWmphYXFxcVFR0+fLjLyQDBuJCQkK64nlmzZlEiED8SxuE4/uTJEw0NjSFDhoCThFQYN3HiRBaLtXv3boqAkmFcTU0NKFO056M0hksE4zAM2759+759+5hM5qpVqyiIR+q9Uiu/IBh38uRJ+M4SBcah6EI0wa4gEgzDvvnmG29vb6nik56eDsYSDw8PAwODAQMG7N27Nzk5GYRn9erVZBh35swZLS2tUaNGof5R4b2scRQYRxDE2bNnNXr+wM4nCeMgXrLLRf3evXsUGAfxawjGAYCQPOVBQ0WRqhiG6ejo7Ny5c+XKlUwmc+PGjZLwlHyXnPIXB+NOnDhBgXGhoaHkCXbZMsHou2jRopCQEKnCk5CQAEfwkDJGT0/P2to6Kyvr7du3qamp4PCKYBwkeFu8eDHyu4DHfSSMEwgEV65cAYAIWEoOjENux2imOI5DwKO9vX1sbCyc5ck/oYOVHqLWrl69+u2330L+YcpGHT2i18IXB+P++OMPmJQcGLd06VIMw2bPni1VciB1fGdnp1AoPHLkiLa29oABAy5evJidnf327ducnBxYAgDGdTl4QDKsXbt2UQxXHwPjCIIQCATbt2/HMGzmzJkwI1kwbtiwYZTzXFAjAONSUlJycnLgENnPz08OxwHGYRg2cODA33//fd68eRoaGpcvX/5g4aFhnDLCOElr3L1792Dbx2azwW9d6v9VVVUbNmzAMOy3336D81MQJjs7OxUVFYBxOI7HxcWB7YGiqj4SxoGFWUNDY8CAAZBlgM/nDxw4kGKNA18rcr5+GGRTU5OJiYmKisr58+d5PN6sWbPg0FDO+4Bg3I4dO3g83tu3bydMmKCpqYmcfuTcK/WnLwjGwfpqYWFBgXGS1jhXV1cwvqalpUkVG6js7Ow0NjZWVVXdsWMH+HoDiXbv3k2GcZcuXdLV1dXU1KQYjD/SGkcQxIULFzQ1NdXV1WElBuaSrXGlpaUWFhYYhl28eJGi8lJSUuD8ztfXt7W1dc6cOQwG4/Tp05KDRHxH1rh9+/a1traGh4fD/ufx48eozXsVviAYt2/fPjB7y4dxAoHgwoULwP2amhpZwkMQRH5+vomJiaqq6rVr10BHkX1tEYyD3n788UfKAdxHwjihUAgmZxMTE3CllYRxNTU1o0ePJoeUIebW1tZiGDZkyBAXF5fXr1+DF7KLiwtqIFmAlZ7FYl2+fJnNZqekpDCZzOHDhyOXAMlb5Nd8WTBOVVX1yJEjMCM5MG7jxo2geUQikSzhwXE8ISFhzJgxsD0TCARgDhcIBD/88AOGYQDj2Gz2X3/9hWGYmZkZxez3kTBOLBbv2LEDw7Bx48bBjCRhXEVFxahRo3R1dR8+fEjhY3Bw8NChQ3V0dDIyMurr6yEO2sHBgdKMfAkwjsFg3LhxA3Jv6enpQYD8hx0F0DCu/2Ccnp4eZe2Rdajq7u5O8XaMj4+Hc0OKlzo4FCPev379Gtzgnj17howKYrH4/PnzEPIJ+5i8vLxhw4ZpaGg4ODiQH/QxMA7yfcCeePTo0eBazufz9fT0hg0b9ujRIyTHcPBqYmJCOVjJzc3V0NAYOnQoqMK9e/eqqqoaGRmRXUqhEzQ1WOnV1dXBvZTP57u4uKirq3/77beJiYmoGXp0rwWlhXHTp0+n+PwdP35cqjVOcvkpKyuDJIX37t2jOBqCbgWy5OTkaGpq6ujowOk8VHbFUoEXCzpUhcwycOqEBA8af4w1TiAQbNy4kclkDhgwAEw1UVFRkyZNUldXR7bV1tbWY8eOMRiMtWvX1tXVoaeLxWIIcVBVVS0pKeFyueCUs2rVKkruQLSWIGvciBEjINME5K7T0NAwNDQke5L1KjOowZcC41re+cYdP34c3LnAN27EiBEUaxxBEN7e3kOGDNHR0Xn9+jUiOJINVJOcnKyrqzt58mSyn0ZjYyNYUBCMi4qKYjAYo0aNQrGr0NVHwriOjg4w+/38888QZw1ZkUeMGIEyMeE4Pn/+fAzDTE1NyeAex/EHDx5AlO7Lly8bGxvNzc0hrT9ZN8I4kUqBlX7evHkoiP6PP/6ANC6FhYWILEg2ei18cTAOHUHKgXEODg7glYtSGiE6kDXPvXv3DAwM1NTUyCZ2Ho9nYmKCYByO4zdu3IB8QCh/DfT2MTAOx/GysrJff/0Vw7BFixZBh0FBQQwGY/78+Yi5DQ0NK1euxDDs9OnT5EUcoqlUVFRMTExATU2ePFlVVXX79u3kZpRlGmDc8OHD4XF1dXVbtmxRUVGxsLCAbRWikoIFGsYpI4xDAd6IixwOZ+vWrSwWa/jw4SkpKcgmx+FwcnJyUChf1xcqFyxYgGEYcvUVCoUFBQWg4xYvXgwwrr6+fsuWLQwGY+7cuTExMSBwYrG4uLgY4nEUTDiya9euqqqqjo6O9vb26urq4ODgyZMnM5nMrVu3QmScQCAYM2aMpqbmX3/9BWe+BEEUFBQMHDiwK6eXvb19XCbDlgAAIABJREFUe3s7vM9dyee2bdvGYDCWLl0Kab2eP3/e5RvLYrEOHTpUWVkJKlUoFNbU1KD4cIBxLBYLYBxBEOXl5Rs2bGAymXv27GlsbHxfffoFwbi///5bKoyT3C+KxWJLS0sVFZVFixYlJCRASg6CINhsdn5+fllZGYgZJI3T1tb28vICtCcQCFCI9Jw5c6CyrKxs3rx5DAYD8k6D3Q74MnnyZMXT/x45coTD4XR0dLS1tVVUVLi4uEDWgLVr18J44uLiABe6urrCmHEc9/f3NzIyGjRoUHBwMITIiESivLw8CwsLBoNhamrK5XLFYnF0dLSBgYGuru6lS5eqq6vBGCAQCMrKyt68eQP2SxSpilyaysrKwAa8a9cuihZGb6KcwhcH4/7+++9eYVxBQYGpqamKikpXWHFhYSHQXCwWt7S0pKent7S0wCuWmpo6ePDgsWPHRkREIOFJTEyEcIGjR49C5o62tjbIL2hpaZmVldXZ2QmZTbKzs2fPnq1gpKq2tvaJEydAeFpbW8vLyz09PeE4HuoJgkhLS+sKcoScOBwOBwbp5OQEebOjoqJgvQT1OHnyZBUVFchWQxDErVu3ILm0i4tLQ0MDCA+PxystLUU54QDGzZ8/H2XnKS0tnT59uqam5rlz5+QE1siSny8Ixs2cOVNVVRV5LcuBcTU1NSNHjmSxWGvWrAHhAXaD8KBkLijFI4Sfg0Xg+fPnEJKCTm9jY2PBYXrPnj3l5eWwIvD5/KdPn4LmoRwuUUiN0v/6+/uz2eyOjo6WlpaioiIbG5tBgwapqakhE1pERATkFgkKCgI54fF4Dg4OGhoaJiYmz58/B5OhUChMSEgwMTFhsVhWVlbg/Xnr1i0WizV69OgHDx40NTUB7ufxeEVFRZmZmXAJMG7kyJFohE+fPp0yZQqDwXB1dUVbBfRrrwUaxn0ZMI4giFevXoET94QJE2xsbDx6/s6dOzdz5kyUdaKpqenw4cPq6uo//fSTu7t7eHi4q6urpaWloaEhhJsBQhIKheg4csaMGefPn/fy8nr06NGePXsgu6OCMO677747fvy4nZ2dlZXVxo0bhw4dymKx5syZExMTA6pcKBTCkdyoUaP+/PNPlG70xIkTEFlmbW3t6+vr5eW1e/duJpM5cuTI+/fvw15ZKBSeOnUKvrO5evXqu3fvent7Ozs7b968WU9PD7z6YBZggwFZF4vF4eHhEydOHDBggLe39/u+EsoM4yh7UFkwTqrrT3JyMihfExOTCxcuePX8nTlzZs6cOUePHgVYIxAIli1bBilMPT09Q0JCnJ2dFyxYMHz4cLBVoL3p/fv3IYisK8Dz4sWLnp6e9+/f37x5M/izK5hwxMTE5OzZs11pC06cOLFq1Sr4QMX8+fNR5Fp5efnq1atVVFTGjBlz4cIFgJvV1dUHDx7U1taeMGGCvb39kydPXF1d16xZo6mpCV+BA8Framo6fvz4wIED9fT0tm/f/uDBA19f37t371paWi5atAhsA5IwjiAIX19fSPvk6+v7vsLzpcC45ubmPXv2YBimCIwTiUR+fn6QI3f+/Pn29vY+Pj6urq7Hjh2bOHGis7MzELy8vNzCwkJVVXX9+vU+Pj5hYWFOTk4oievy5cuLiopwHBeJRMj00pVh5Nq1a13WPhcXl/Xr13d95EZBGMdisebNm3f27Nnz58///fffZmZmgOFWr16NUviy2exx48bBJ55v3rxZXl4OkRArV65UVVWdPn369evXHz9+/ODBgyVLlkDSbAQCanoy+6upqWlra+/du/fBgwdeXl5d31P/5ZdfZsyYATthSRjH5/Pd3NwGDRo0efLkD8g9/gXBuO+++05VVfX3338HlSsHxoE1d/jw4RoaGsuWLbtx44a3t7erq+vRo0cnTZp0+/ZtgNd5eXkQKr5ly5YnT550pdC6evXqrFmzIG/cggULIKahvb3dxsYG0gKbmprevn3b29v7zp07v/zyi4aGhuJfcVi7du25c+fOnz9/7NixJUuWDOj527BhQ8O7r0FmZmbCee6cOXOuXr0KtrTCwkJTU1M1NbUlS5Y4ODgEBAQ4OzsvWbJEVVUVvoUDc2lsbLS0tFRTUzM2Nj506JCrq6uPj4+9vf2SJUt+/fVXkEOAcSNGjED4jM/nW1tba2trGxkZkb/JhBrIL9Aw7nPCuK6vE2pra0tGqkpa44CLcXFx69atGzRoEIZhau/+Jk+efOzYMYA+OI6/evXKwsJCQ0MD9hOGhoaQvX3RokUsFgvtbNhstpeX19y5c9XV1cFRV0dHZ+rUqXB0qyCM6/JSgj+IRZoxY8aBAwfi4uKQbRwSey5btgwW+MDAQFgaa2trT548OWHCBDU1NR0dHfhM0KxZsxwcHMi5mtra2i5cuDBz5kz4nhJ8vUdbW3v+/PmgcwHGMZlMZI0jCKKtre306dM6OjrTp0+H10b+O0D+9T8A4+7fv0+eEZT5fH50dLSFhYW+vj6DwdDU1IRVsyt3wLVr15DL8KtXrxYtWqSqqjpgwIAhQ4YMHjx4+fLlLi4uU6ZM0dLSOn78OIgZh8O5c+fOjBkzmEwmg8FQV1fX1dVduHBhl4ey4ta4d7KDMZnMQYMGzZ49++jRo8gwBvGDwcHB8OGdrvU4KCgI5pKfn3/kyBH4FMHAgQM1NTW1tLQWLFjg5eUFeBTUbllZmbW19ZQpU+CTOFpaWkwmU09Pz8zMLCUlBcdxqTCOx+Pt3r1bRUVl4cKFyNAiSU+pNf9JGNeVNoLL5fr6+sJiCcIDX3+ZNWuWi4sLwDg+nx8RETFnzhw1NTV9fX0jIyMDA4M1a9ZcuHBh+vTpXa4/Li4ufD4fx/GWlparV69OnTpVVVUVwzBgn4mJyfDhwxWEcUhyIITWwMDgxx9/PHXqFMqkD9zx8/P77rvvmEzm2LFjUdhpYWHhzp07hw0bxmKxdHV11dTUtLS0li5d+vjxY5gI3FtcXPzHH3+MHTsWQnHV1dXh62QrVqyAE39JGEcQRHV1NeSc27BhA/nQX6q0UCq/IBg3Y8YMxWEcfKRx4cKFWlpaKioq8JVITU3NuXPnurq6AvSBFL6Q2EhfX3/o0KEjR47cvn27nZ3d8OHDNTU1UdhWZWWljY0NBHh2+ZaBC8Ts2bNhTURAnEJbuETWOCQ/LBZryJAhCxcuPHfuXElJCdq2sdnsBw8egOrociGF24VCYWJi4qZNmwwNDVksFhjwBg4cuGrVqujoaLTkicXi3Nzc/fv3jxo1SkVFhcViafYEdA8dOnTPnj2wFaccqkL/5eXlEDC7fv16cn5ZqXOhVNIwrm9gHJvNftLzh46oyIQuKSkJCAggfz4Vfs3KyvL19UVZ49vb21+8eOHl5VVaWopEitwPHBoGBwdfv34dPj/86NGjuLg4cgA2nDE9fPjwzJkzYHfJzs5ms9mpqal3794lr/FcLjcjI8PV1fVcz5+rq2tiYmJCQoKXl1dWVpakXwgaCQg0WHTgfx8fn6CgoOTkZMm0WwKBIDc3193d3c7OLi8vD95b0OaxsbFOTk6wq3Z1dX316pWkZwCXy01JSYFB2tjY3Lx588mTJ5mZmdCypqYmNDTUy8uLcopRWloaEBDQZeRDacHR4OUXPguMq6ioCAoK8vLykvr2lpaWenp6hoeHkwEuQRDp6emenp5xcXEArTo7O588eeLj4yOZzg2mLBAIiouLnzx5Ah+zv3jxooeHR1JSEjragGbZ2dnOzs5dWXavXLni5+dXUFAgEokSEhJu3rzp7e2NpILH4yUnJz948ODcuXPQVXZ2dmBgoJeXF7KISCU1h8OJiYkhC4+vr29oaGhqamprayuIB7qRx+OlpaW5uLjY2NiQQVVdXV10dPSdO3dsbGwuXLjg4eEBJ3ToRkByLS0tCQkJ9+7dO3v2rI2Nza1bt4KCgnJzc0F4ulLRenp6BgYGkl8fgiAqKio8PT2DgoLkJPAkPwiVPwuMq6ur8/LyCg0NpSTTQiYET0/P+Ph4ckoz+NK5p6dnRkYGCE9bW1tISEhQUBA5SzCaF2Ttys3N9fPzu3jx4pkzZ65everj45OamooO6CHV0evXr+/evWttbX358uWAgIDi4uL29va4uDh7e/tnz56B8OA43t7e/vLlSycnJ1tb20uXLvn4+Lx+/ToqKsrHx4diciaPAcr+/v6SwpOWlib57giFwuTk5Pv379+5c4ccUVFbWxseHn779m0bG5uLFy/6+Pjk5uZK6tvm5ubnz587Ojqe7flzcHAIDQ0tLCyElpWVlZ6entHR0eS3UiQS5efne3t7BwcHg7uI5Phl1XwWGFdYWOjt7R0eHi7VhSApKcnLyys6Opoy5vDwcG9vb3S+XFlZCeqLkgcU3SUQCLKzsz09PS9cuGBtbX3t2jV/f//09HSyTPL5/ISEhBs3bpw5c+bGjRshISGVlZXt7e3h4eFXrlwhe+u2tLQ8f/4c2Hf16tXHjx+/fv0aVgFK+DMaABQaGhoiIiLIwuPn5xcREZGdnY2O3dEtbW1tCQkJjo6O1tbWqFIkEpWWloaEhNjb2585c+by5cuPHz8uLCxEWhFadsVMIAVlbW1ta2vr5OQUGRlZUlICr1tmZqaPjw/62jXqPyUlBTSPVHagZpIFGsb1DYyTpCy5Bty/yE6d8CuqJzfutYzjeGdnJ5zug9+G5C0CgaC9vb2jowNtMXEc5/F4kvIhFAo5PX8gYZJdfXwNjuPwFKFQSF6ncRwXCARsNpvD4aBxSj4O3c5ms3k8HqUHqTREleTGkj1L1nwWGCc5DHKNrLmgenLjXstisZjL5YJsSC5dsPYDU7hcLmIKCA85fBVaAlvJYtbrAD6ggVAoZLPZkvLZ9YlMeAskfyI/BaajuPDA1IC85H56LX8WGCd/VEhIyC8CuZJcL78rIAs4wpJlg3wXyAmbzSaLilgs7uzslHxzEfukyiG52w8ug4bp6OigSAiO4+SnyyICUlBsNhtFUMJgyDQkD09WPbmN1PJngXFSR4Iq0VxQDRRk1VOaUS5FIlFHRwebzQaHSMqvcMnj8drb2zs7O5FIQC4bye09sA8cYaV29fGVSEgoXcH6297eLv/p6F3gcDgUnCeLgKhelkBSRoIuaRjXHzAOkZsuKDkFlBDGKTnF6OEhCighjENjowtKTgElhHFKTjF6eIgCNIyjYRwSBrpA0DCOFoIPpgAN4z6YdPSNNIyjZeCDKUDDOBrGfbDw/AdvpGHcf5Cp/TUlGsb1F6X/g8+hYdx/kKn9NSUaxtEwrr9k7Ut4Dg3jvgQuKekYaRinpIz5EoZFw7gvgUtKOkYaxtEwTklF87MMi4Zxn4Xs/42H0jDuv8HHzzILGsZ9FrL/Nx5Kwzgaxv03JLlvZkHDuL6h41fZCw3jvkq2982kaRjXN3T8KnuhYRwN475KwZcxaRrGySAMXd07BWgY1zuN6BYyKEDDOBmEoat7pwAN42gY17uUfD0taBj39fC6z2dKw7g+J+nX0yEN474eXvf5TGkY9//tnQdzHEeapvUHZnYv4jZuJzbiYi/mP1zcxW1sxMbF3cHQDL0MKYqypNxoZEhRGkkzo5mRxJG6AZAg6AkS7G50N7z33nvvvUejTWX9gTl1J1CVqKzOLoANoAC8DEiRlZWVlfl+X2Y9mZWVDYyLulPt4wyBcfvYeHtddGDcXltgH98fGLePjbfXRQfGAeP22gfNdH9gnJmssc/KAozbZwYzU3GBcWayxj4rCzAOGLfPXHZHiwuM21F5D3bmwLiDbd8drR0wbkflPdiZA+OAcQfbw7dWO2Dc1vRCakYBYBwjBoJbUwAYtzW9kJpRABgHjGPc4dAHgXGH3gW2LwAwbvvaHforgXGH3gW2LwAwDhi3fe85eFcC4w6eTXetRsC4XZP64N0IGHfwbLprNQLGAeN2zdn2wY2AcfvASGYtIjDOrJbZB+UCxu0DI5m1iMA4YJxZfXMvygWM2wvVD8g9gXEHxJB7UQ1g3F6ofkDuCYwDxh0QV45KNYBxUZHxcGYCjDucdo9KrYFxUZHxcGYCjAPGHU7P1681ME5fF8QaUAAYZ0AkJNFXABinrwtiDSgAjAPGGXCTQ5MEGHdoTB39igLjoq/pockRGHdoTB39igLjgHHR96r9myMwbv/abs9LDozbcxPs3wIA4/av7fa85MA4YNyeO6GJCgCMM5Ex9ltRgHH7zWImKi8wzkTG2G9FAcYB4/abz+5keYFxO6nuAc8bGHfADbyT1QPG7aS6BzxvYBww7oC7+JaqB4zbklxIzCoAjGPVQHhLCgDjtiQXErMKAOOAcaw/HPYwMO6we8Bz1B8Y9xziHfZLgXGH3QOeo/7AOGDcc7jPgbsUGHfgTLp7FQLG7Z7WB+5OwLgDZ9LdqxAwDhi3e95m/jsB48xvI9OWEBhnWtOYv2DAOPPbyLQlBMYB40zrnHtQMGDcHoh+UG4JjDsoltyDegDj9kD0g3JLYBww7qD4cjTqAYyLhoqHNA9g3CE1fDSqDYyLhoqHNA9gHDDukLq+brWBcbqyINKIAsA4Iyohja4CwDhdWRBpRAFgHDDOiJ8cljTAuMNi6R2oJzBuB0Q9LFkC4w6LpXegnsA4YNwOuNW+zRIYt29Nt/cFB8btvQ32bQmAcfvWdHtfcGAcMG7vvdA8JQDGmccW+64kwLh9ZzLzFBgYZx5b7LuSAOOAcfvOaXewwMC4HRT3oGcNjDvoFt7B+gHjdlDcg541MA4Yd9B9fCv1A8ZtRS2k3aQAMG6THDjYigLAuK2ohbSbFADGAeM2OcQhPwDGHXIHeJ7qA+OeR71Dfi0w7pA7wPNUHxgHjHse/zlo1wLjDppFd7E+wLhdFPug3QoYd9Asuov1AcYB43bR3Ux/K2Cc6U1k3gIC48xrG9OXDBhnehOZt4DAOGCceb1z90sGjNt9zQ/MHYFxB8aUu18RYNzua35g7giMA8YdGGeOQkWAcVEQ8bBmAYw7rJaPQr2BcVEQ8bBmAYwDxh1W39erNzBOTxXEGVIAGGdIJiTSUwAYp6cK4gwpAIwDxhlylEOSCBh3SAy9E9UExu2EqockT2DcITH0TlQTGAeM2wm/2q95AuP2q+VMUG5gnAmMsF+LAIzbr5YzQbmBccA4E7ihaYoAjDONKfZfQYBx+89mpikxMM40pth/BQHG7QbGjS8vfFLiiLdbf/5rnxmP6CZ989MvZqTE262vZT8YWJgRp79RV3DEnnA8Pelmc5k4pSzL7TPjtBiflDjGlhcipqeJ3y9IM1Ls3vkpmv7ryszJlUVB5rOelSv5T+Lt1ks5D9umxwQp6ani4W6a8426wlW/N2L6bScwJ8bRur9X8NSIVv0L0zT9VxWZ40ITL/vWfqgtoInLR3ojilY20ksT/1BXsOKLYIWqsf4LWffi7dYPCp/5AoGImT/rajjjSo63W6+Xu8WJx5YWPiq205J0zEyIE8uynNBYcsyReNSR+GN9UcTEz5PAhBhXMz7wavb9eLv1/cK0tYA/Yu1s3Y1n3Lfj7dZrZS5x4p97j49LFCtE7tOSmkqPpycdsSfcqCsU5yzLckZvy1FHQrzd+mlpesTEsizfa62i/nCntTJiepry/cLIfZo34P+poZimzxvsiJjz8yQwIcZ1z04eT0+Kt1sv5z8ZXpyLWLv7bdVUq9stFRET05TvFaRF7NN8UsCyYYWcgXZxzt6A397dSDN/3FHr8fvE6efXVn+sL6LpyyL1gWyf5pci9GmTK4vXy90051YDzzhxOcVngXG7gXFjy8EHT4zNEmOztE9H7vJ656bPuJNjbJYLWfciYtz3tfmxNssRR0JiU6nY2EGMmx6nxfio2G4E42jiK/lPIjY2WZZ75qZo+i8rMiYiYdzbeakxNsur2feNuHjRcDfN+fvagkOIcbTul/OfGNGqb36apv+i3B0R476rzaeJI3ZhsiyXjvTQxN/V5kfEuMqx/lcy78bYLO8WPDWCcU876086b8bYLNfKnGI3Hl1a+LDoGS2JkdGFtbE43p4QZ7MaAQjxrcVnTYhx1eMDihWMYNyzroaTzlsxNstnkfgp1KfZjFshobHkiD0h1mb5vq5ALKMsy67ellibNcZm+bjEETGxLMt3WitpSVIMAARN+W7B07aZCANIb8D/Y30RTR8RIIyUU5DGhBjXNTt5xJEQY7O8nffYCMbdba2iWiU3lwtqSk/RlFcM9Gk+KfDThhWy+tvEOXsDfltXI838UXuNEYy7UVdI05cORxjKVo72vbzRp0XEuImVxWtlTppzy1QETxNXKuJZYBwwTuQkSmMDxn2WHXQVzd+b6b+64L7cPDUsEvG5z1ErAOOokMA44w4FjOO1oq0JGMcro4kBxmkEAcb9Pcy/F8LEbyH6avYvNQ/XrR7+R+pHvfPTGptF8RCzcRoxZz0rmI3TaCI4BMax4gDjWDXEYWAcrw8wjtdENwYYp5EFGBcOy4BxGlcJHuKlqkYUvFSNsVkwG0e9AhinaR2CQ2AcLw4wjtdENwYYp5EFGAeMw9o4tVFgNk7VwkAIs3GsSMA4Vg1xGBjH6wOM4zXRjQHGaWQBxgHjgHFqowDGqVoYCAHjWJGAcawa4jAwjtcHGMdrohsDjNPIAowDxgHj1EYBjFO1MBACxrEiAeNYNcRhYByvDzCO10Q3BhinkQUYB4wDxqmNAhinamEgBIxjRQLGsWqIw8A4Xh9gHK+JbgwwTiMLMA4YB4xTGwUwTtXCQAgYx4oEjGPVEIeBcbw+wDheE90YYJxGFmAcMA4YpzYKYJyqhYEQMI4VCRjHqiEOA+N4fYBxvCa6McA4jSzAOGAcME5tFMA4VQsDIWAcKxIwjlVDHAbG8foA43hNdGOAcRpZgHHAOGCc2iiAcaoWBkLAOFYkYByrhjgMjOP1AcbxmujGAOM0sgDjgHHAOLVRAONULQyEgHGsSMA4Vg1xGBjH6wOM4zXRjQHGaWQBxgHjgHFqowDGqVoYCAHjWJGAcawa4jAwjtcHGMdrohsDjNPIAowDxgHj1EYBjFO1MBACxrEiAeNYNcRhYByvDzCO10Q3BhinkQUYB4wDxqmNAhinamEgBIxjRQLGsWqIw8A4Xh9gHK+JbgwwTiMLMA4YB4xTGwUwTtXCQAgYx4oEjGPVEIeBcbw+wDheE90YYJxGFmAcMA4YpzYKYJyqhYEQMI4VCRjHqiEOA+N4fYBxvCa6McA4jSzAOGAcME5tFMA4VQsDIWAcKxIwjlVDHAbG8foA43hNdGOAcRpZgHHAOGCc2iiAcaoWBkLAOFYkYByrhjgMjOP1AcbxmujGAOM0sgDjgHHAOLVRAONULQyEgHGsSMA4Vg1xGBjH6wOM4zXRjQHGaWQBxgHjgHFqowDGqVoYCAHjWJGAcawa4jAwjtcHGMdrohsDjNPIAowDxgHj1EYBjFO1MBACxrEiAeNYNcRhYByvDzCO10Q3BhinkQUYB4wDxqmNAhinamEgBIxjRQLGsWqIw8A4Xh9gHK+JbgwwTiMLMA4YB4xTGwUwTtXCQAgYx4oEjGPVEIeBcbw+wDheE90YYJxGFmAcMA4YpzYKYJyqhYEQMI4VCRjHqiEOA+N4fYBxvCa6McA4jSzAOGAcME5tFMA4VQsDIWAcKxIwjlVDHAbG8foA43hNdGOAcRpZgHHAOGCc2iiAcaoWBkLAOFYkYByrhjgMjOP1AcbxmujGAOM0sgDjgHHAOLVRAONULQyEgHGsSMA4Vg1xGBjH6wOM4zXRjQHGaWQBxgHjgHFqowDGqVoYCAHjWJGAcawa4jAwjtcHGMdrohsDjNPIAowDxgHj1EYBjFO1MBACxrEiAeNYNcRhYByvDzCO10Q3BhinkQUYB4wDxqmNAhinamEgBIxjRQLGsWqIw8A4Xh9gHK+JbgwwTiMLMA4YB4xTGwUwTtXCQAgYx4oEjGPVEIeBcbw+wDheE90YYJxGFmAcMA4YpzYKYJyqhYEQMI4VCRjHqiEOA+N4fYBxvCa6McA4jSzAOGAcME5tFMA4VQsDIWAcKxIwjlVDHAbG8foA43hNdGOAcRpZgHHAOGCc2iiAcaoWBkLAOFYkYByrhjgMjOP1AcbxmujGAOM0sgDjgHHAOLVRAONULQyEgHGsSMA4Vg1xGBjH6wOM4zXRjQHGaWQBxgHjgHFqowDGqVoYCAHjWJGAcawa4jAwjtcHGMdrohsDjNPIAowDxgHj1EYBjFO1MBACxrEiAeNYNcRhYByvDzCO10Q3BhinkQUYB4wDxqmNAhinamEgBIxjRQLGsWqIw8A4Xh9gHK+JbgwwTiMLMA4YB4xTGwUwTtXCQAgYx4oEjGPVEIeBcbw+wDheE90YYJxGFmAcMA4YpzYKYJyqhYEQMI4VCRjHqiEOA+N4fYBxvCa6McA4jSzAOGAcME5tFMA4VQsDIWAcKxIwjlVDHAbG8foA43hNdGOAcRpZgHHAOGCc2iiAcaoWBkLAOFYkYByrhjgMjOP1AcbxmujGAOM0sgDjgHHAOLVRAONULQyEgHGsSMA4Vg1xGBjH6wOM4zXRjQHGaWQBxgHjgHFqowDGqVoYCAHjWJGAcawa4jAwjtcHGMdrohsDjNPIAowDxgHj1EYBjFO1MBACxrEiAeNYNcRhYByvDzCO10Q3BhinkQUYd4gwzhvw98xNts+MKX+lwz3v5KXS7iOzr1WJp4E5z4omJm+g46TzZozN8mJGSsFgJ3u2enygZXqUjble7o6xWeLt1j9UZbPx7TNjPXNTmpjMvlZajHfyUkuHezRnW5ky01M08aWcBxl9LWzinrnJseWFjplxNjJ3oJ2m/22RrWykVznVPDVSOzHYMqUWu2qs72L2/Rib5aWMO3zOffPT7ZtzftheTXO+Xu5umBxScm6fGRtZmvNJAU172/Zh99zY/009d8X1T59l/8LI35vpv7rgvtxtwf/+AAAgAElEQVQ8NbztO2ou9Ab8GlXbZ8Zo3V/LeeDujWyF/MEOmv7DomelI6qJW6dHGyaGWCvUTwx+XuaiiVM7allVO2bGO2cnNFZ43FG7boUyV/3EJiu0zYy1bXaep131Z923Y2yW13MeNk+NsJn3L0wPLc5pqvlTQ9Hx9KQYm+X9wjQ2ccvUaO34IBtTMtzzVt5jWhK+NfE+/3VlVpzdGmuzfFnhZvOhzqPR/3kOH3dUnbb9v48y/9GI53yW/Ys30n/1vx7+7nnuqLl2zrPSNTfB1vEZY4WmqWH2lK4VrI3FvwlZ4d2Cp2xi3gqlwz1vh+/TeCt8U5UVH7LC9XKtFVqn1a6S3vRWc1mszRJjs1zOf8IWI9SnTY4vL2gi/1KTR/3hLzW57KnWaa3zKK3p9ZyHmp6nY2a8K+jzamGap0Z+X5FBc77TWsme6pgZn1pd0uj/PIc14/3/9vCUQc8JOo/z1+8VJE6tRK0MHr+XrWD7zFh2f1u8PSHGZrmYfb9oqIs92zEzPrw4x8a0z4z9dcMK31bnsKdap0drxgfYGMUK/JOFt0LL1MhXFZnUCiktFWw+fLfTPDVibSyhiW/UFTRObvL5kaW5gYUZNoea8YEvQw/QGJvl8eY+sGFyqGlqmO3WnnbWrfdpuQ9bpjf1ad2zk5oOrWyk9/3CNFoSTb/dPjO24lt7Hm/RXHu/tehE2r//1nDPI3azcKwmiH9BcM7gqavZvxQXK+LZ/0j9qHd+WiPNtg/9kvRNZda5jBTl74w7mbaHGJvllOuWEn8uI+X9wrR5z+q7BU/ZyNOuZNqLxdqsp13J7KkTzpvn3LfZmKOOROorx9IT2fhzGSmFg53v5KWykadct2jieHvCGfemnK+Wpn9dmckmPpeRspHYqin2F+XuuonBj4vtbPrTrmSa/ohjU+YnnTfj7dYzTEXOuG/H2a0xNkucTZvz15WZtq4GjSAUamNslqOOxLNM9V/KuOPqbfYFDg7GLaytapxHsUKcXavV52WuhomhT0ocRqxw1n37tOsWa/Sz7tuK85x0bnLLD4ue3WwqfW+zW550rjsPb4W/1uR9UJjGFuOk8xb14Xi7VeOx91qrioe7LmTdY9NTeoixWY7YE9j4s+7bmrKdcbGtaZMPf1CYljPQzl5+LiPlmNJAHNoGUj3Wv+1mzl+45xjXPTepcYaQFYINLd5uZRvOuYyUu62VxcPdF7Pvs3JFsALT9MR9WnZ/G5sta4WjnBXs3Y0vMr3luYyU34QGsaFib3KGcxkpD9urK8f6NOnpACDGZjmensTel3cepTXFc63ps9L0xx21m3J231acJ9jxMoV8r+BpzfgA7wPbjtlzjPMFApfzn7B1VPrzuM2997mMlOvlrqpoWIHv0z4pcaQatsKVgid/qs65mP1ALbb7tuLDx9OTWJ+/lPMgp7/9TmvlK5l3lfRnGRNr+plTrlvBZxbj84I+7W5r5ZflGazznHEnHwlBMP/Qf6/g6Yxneduuwl8IjAtOukQX42RZrhjtpc8wijWC/6d11vukgLuvRZCGPVU20nM+8x4bEy78Vt5jXyBwv60qXAI2PtZmqRkfyBloM1LsY47E9O6mVb83sWl93MNmxYcvZN37otx9YqNr5hMoMcfTk+63VS96PcogWDmlG7iS/6Rteox3623H7PlsnF8K5A20G7HCUUeivbtx1e+92VyqK44m8kLWvZ8ait7IfaSJ5w9jbZZvq3MmVxa/rlwfBPNp2JjL+aktUyPf1xYoYxX2rCb8YkZK7cRgQJKu5D/VnNI9fDX7fnpPk+4pPtLW1eD1+y9kBSd6I/69kfto236ie+GeY5wkSTfqCo1Y4VxGSs34QECS3itYnzAQy/Vq9n1HT6M4jXL2WVf9mt9n2AoPCSEGPe2oPXHeszK2vPBRkU25nSBwKfvBs656I63pWHpSek9T2/SY8tpEkG2MzfJluXvV59V1g+1F7jnGybL8rKtBXGvlbM3YwPjywu+K11cKKfG6gYvZ9+1dDYas4Eh0dDe2z4y/k7/+8ko3QyXyepmrc2b8s9J0JUYQ+HmEM7w41zI9+mroRZAgJT31t7qCz8tc8aHpBnHiFzNS6iaGqsf6j6WvT6mI0z9sr17z+7fnJ7pXAeN2BOMCkqRMqAos+mbuo6HFWVmWl71rbxp4vn5QmCbLsru3hU5lCXKOtydUjPYRQvrnp1818FT7tDRdluWhxdlPShyCbOmpN3IfLnuDc8J1E4Nv5D4Up4+zWf9Yld03N/XFxty1IP3l/CeDCzOyLBcMdirj5nDpj9gTUloqvIFotoc9xzhZlocX5z41YIVLOQ+oFeonhiI6T5zN+k1l1uzqsqWhOGLHdD7zbsVoryzLhUNdL27MyAqskNxc7g3422bGXsm8Gy4ZjY+1WW/UFcx6VmRZrhrrj1iSOLs1rat+1ed9tyAy872Z+2h0aV6W5dyBdgMNxFo41KXbJ247cs8xTpbl9pmx81kRhnmxNsv3tfnUCtXGrPC0s27V5zXYpw0vzsmynD/YYcQKBYOdhJDW6VFlRk3gQndaK2RZ9gUC7t4WZSI5XPo4m9Xd2zy4MPtxSWTaeDP30bJ3zeP3/fzaLiIHn3XfLh7u3raf6F5oBoybXFm8lBOhP4+xWT4qtlErZPa1RrRCrM3i7GkaXpwz8mR5PSf4ZPH4fXdaI1vhjDu5aKhLIiSts155URDOGU46bz7trJNlWZKk72rz42zBKWrB3yuZdyvH+tumx17OvCNIFmOzhPq0wjnPSkCSDNaxZ25K1we2HQmM2xGMk2W5YWJI7OJHHAmpHbWrfp8sywFJcve1KHOwun5zzJFYNhJ8uE6vLkWcyfi0xOEJ5bziW7vXViXumI6nJ7XPjIdapt/R06hMSusWI9Zmye5vow636vP+rb5QXOwXM1KqxvolQpw9zWc23rrq5nzUkXivrYrmvOT1XCtzigdw7+SlRncqTpZlM2CcL+B39jZFtEJWX+u6FfzeHxuKxFY4l5FSNdoXIu+h14U9dWwI+KjzLHnXPi9zia3wdt7j1ulR2j9+X5uva1kl8nzWPerD1Ocj9nqX85/0h1Y71E0MRmxNTzvrabEX1zwRgeN3xbb5tdVt95u6F5oB4yRJ+qGuQBFcN3A+827pcA+tQkCSPi2JMJnxTn5q73zwwVNvqE+ro1ZY9q59sLE2SLcYFAjmQky/6PUoK6vCJT6feVdZCjawMBPRed7IfbjiW/MG/I7uLfRpzVOjypq/cCW5Vub0+IL9dhT/mQHj1gL+tK76iA+Ln5fT0IoPLsx8Gmkm7FLOgxXfmi/gT+8x0KdtPFlapkYjTsh9VpruCU2IDi/OflRsE3dTHxSm0TGeLMudsxPnQst2w9k3zm79rjZ/zrNCmS9cMhp/IeteeWjQK8ty09SI8hZe96oj9oR7rVXLUV0YJ8syMG6nME6SpC83lsfqWvTdgiedsxO0PRBCxpbmPyx6ppuSRn5e5qIPHm/A7+ptFjzVfpN+s3SkRyKSLMuhke6YsiRcN/9vq3OU/qh/flrcP17Of8K+TWiYGHpVOPr/pjKLTiBPLC98WuIQNLbXcx6OLS8oJSkd7hEM0I85EpOaSn1RnYozCcbJsjywMCOekLucn7rJCpPD9JMRXfvG2CxfVWSuhbDe4/fdqCsQMN8p56268fVuWpblspGe36QHv7bR/TvqSExoLFEmRHvnpgTD4ni79c81uSw81U8MiU38mBnniGdz3yt42j03SZ3HL0m5A+2C/vQ36Ul5gx3+6H0ZQ+9rBoyTZblvfkpZ1cRbLd5u/VN1DoUnWuzGyWGBFY46Eh+111BnkyRJbIV3C552bfRpAUnKG+wQWOF4elLuQDv9PkkiUs34gGDqNza0Al0xmS/gf9bVoCyZ5asZa7MWDnbSCvbNT4sn5K4wfdqa35fYWCLoXY86EquiuqSSFtIMGEcI6ZufFs98f1WRSTGdTsjZuxsETT7WZi3YsEL/QsQni9qnrfl9SU2lAuc5Yk+g41L6jHvaWS/opo45EtO66qnOwQEnITfqCnmfUWLOZ90rHVkf5/TOTZ3YWBOsJFAC8XbrX5g+TZIk8fKAt/Met4QGvUphohIAxu0UxgUn5CaHwy0IO+ZIvN9WRafiqCHXAn5nT/MxR/BjPf7vpPNm0XC3X1ons8GFGcG6hN9XZEyvqisol31ryc3l4Z7cp13J7JyWLxB40lkXrmXG2azKOH692H5fcI46zAKCo47E5qkRmpIQ4uptFvS8qR21rE+v+r2CRQ8Xs+93z64/ttmrnjNshtk42j+mddWfCtN9xNmsJZvf6az5fT/UFYR7R3nEntA8uW4FWZabp0YEbwq+rsxUsEyW5VW/92qpk3dIGnMh657y2Kb9o7WhOFzilzPvKJ0jNdOqz/tNVVa49O8VPu0ITRLTnrpufPBEGKA85kh82F6jPF0IIePLC4J5gmtlLnbA8Jw+o1xuEoyTCEnY+FiP1/aljDu88/yhKptPSWNCn6wGp+rpv/qJIUGf9qCtWunTCCETy4tXw8/WXC11KhMksizPepYFs7lv5T3un58mhGwUJDjU+ag47Aq5D4ue0XELbU3iPq1s45lNM2+fGXst+0E4Qa6VOdkGopTnOQNmwDhZlj1+X2pHbTiKPeW6VT02IG22ggCRPyzcZIWn4d9+8n1a+8z4pZywVrhauskKkyuLl/OfhDPZW3mPZ5gHIl0+FG6oE2cPrgJaXPNQg0qEWML3aa9k3tX0ae3TY+Genkcdibeay1aiuqSSFhIYt4MYt+Rd+3NNrq5vXSl4Qt9jKo2frmP7OMyiqK8qMieWF5XE3oDf3t2oO4Y+5bpVONRFgY+mJ4Q0TY78PA7QLcnf6go1jjW0OBvubcgnJQ5+QrhjZlz5AFZziz9UZSkDaFmW5z0r4ZZUX8i6x87T0JI3Tg7rzt7F2qyJjSVszooyzxkwCcaFVsjNhpud/bjEseRd72WU+nbOjofrmL6pzPIzH/P6Av7vwrz9jLdbWSyLZAVLAmeFyZVF+k2+xhPibNavKjM1niYRUjs+qNvrHUtPvNtWqSwEJoQsrK3+qTpHky09fK9ABT5aZl8gkNnXqvti+qTzZmZ/axQ3qVFMYBKMk2U5nBVibdYvKzJ4K9RPDOlbwZF4p1W1gizLi17Pt9X6fZoG+Cg/Zfe36VrhhPOmu6+FtYJEpNKRHt3llbE2a2pHrYLpVHC/FEjtqNUdFsbZrOWh9SeKaYYWZ98v1F9e+UmJQyOILxAIt4Q03m5VhhZK5lEJmATjCCGdsxPh+v9vq3Pokkqlyn4p7LCfH/MPC58sS6H11krOvkDA2lii+4Y33m5t3/xlGyHE0R32ExxXb7OSLQ0QQm41l+l2JufctzXOE641xdmsX3N9msfvCzcaeSv3sTKpoSnPcx4C43YQ4+hT6pRzfRsOxWmOhaicpxBfIJDWVc/D2SnXrdyBjkBoKk7xwr75ad0Jua8qM8eZV5M0vdfvtzQU8xNy5zJSGieH2dFVcNESkR531PKdb5zdWjHSS9/Vsm4XCC4aXd+3Sakj3SxgaCH4AYfyjxCSs7G3HJsyxmZx97YoyZSAXwrovsQ54bw5FlrMrqSMVsA8GBcgUmrQCtoXmnH24ISorhV0u494e4LGCrIs989P884QY7P8uTqXdTOqajgrHE9P4q1ACLnbWqkxbozNctJ5i9/dgxAy61nRHepczk9VlhzQYkiSVD3Wz89QHnMkprRUaFoTIWRocfZamc484rUyF12DHy2fUfIxD8YRQu7pfaJ+wnmTfyFICJnzrPxVrwm/nZeqoRZJkmrGBnT7tOSWct4Kw4tzyt6ErFdcLXXSr7sU9WRZnvOsfKtH6lfyn3TOTLBTcfSqseV53RVU10qd7Ftj2qc9aq/R79NG+zQdoCzLgwszukPTP1Rl8Q2ErcK2wybBuBB8+++1VvEvNM+4ksv0+v/x5YUrejNhV0vTNcy38WTR6dPK9XIeXJg549Y+PWNslm8qdayw7F27oLe851LOA80AgNpocnnxnHt9Ry3WM6+XuzSzrYSQO2H7NO2mM4SQlqlRfkR9xJHwU0NRFPfGYj0NGLeDGEcImfEs8/3j6zkPlXU8rDHohBz/puDL8gyezCRJetReq3kJe8p1K7u/je/v6Ldgr3Fz1D/WF/FzYLIsz3iWXuO+yr5e5ppeXeYzl2V5fHmenzb7oS6fT+yXpIvcC4tLOQ80LUeRpXt2gs85ubmMz1m55HkC5sG4kBWW+dcKn5e5plaWdKuva4Xva3WsQAjhmS/ensC+5GJl7J2b5K1ws6k0TDEW+EVOn5am6yYmhFSM9mng7KgjIZHLnBAyvbrMM9+buY90v/ySggN07arqE86bjp5G3ZKw9d1e2DwYF5yQW158MUP7kd3HJQ7duhNCqsb6T23+AumIIyGhsUSTPtinrer0aW/k6vdpEiHpPc2a0cgJ501bd4MmZ/rqvHCoS/PGP9Zmud9Wpds/EEIetWvfANKpOB62ZlaX+PWj18tdM3p9GtF7lRZvT+iN9jeGiqeZB+MIIV2zEzyZfVudo7vjMSHkcUetBvvoVJyOFTz6fdr0qk6fRvSWB8Tbrd0b6y8V9ajz5OnNERSF+SDdFwg82NhVXsG4eLu1YWKIzZaGx5YWXuSY7zO9Po2+N/ixXrv27kLWPc2IiL/LtmOAcTuIcdS3Sod7WOqPtwc7x3AGkwh50LZp1Hjalaw7UxVayzytmf2+Xu7mgY/eK/gJW3BnL/VD61cy7/JDc6VgqR117JP7eHpS4VAn3yyV9D81FCmNgc6+0G8MlQRKoGykh11LF2e3ZvW18tNLNP2a36d5lXbalbwQ7W8MlbKZCuNkWX7SWcdqdTw9KX9w07ysUnIa0CzjOOm82RfmwTO5sqiZnPixvjDcYNEb8GumSQRW8Ph999uqY5lP+uPtCc1Twa9Zdf9NrS79uSaXdbbXch7QTyM16QkhxUPd7EvbI46EpKZSTTLlkN9A55MSx8jOzOPKsmwqjFvz+x6213BWUJdIKirRwPTq0l82W+Fi9n1daiGElGzu044I+7ShxVnNOsXfFdtHloKbkvD/lryeLysyWGe4kv+EfgrNJ6Yr6jTbgH0Zvg9M3fgZEtpTHU9PKhrqCtenTa0ualYBflebr3n9qluk7UWaB+PoV+e3msvYFXLnMlLyNz5W4Cs461nRDPu/KHeHW376pLOOdcvj6UkFg2GfLFOrSxor/LUmj1/YQ4sUkCTNx3zvFjzRHQDQR/PAwoxmN66roY23+AqG+rQqttiCPo0QUjM28BIziIq1WX+oK+CzjVYMMG5nMU6W5anVpW+rcxUPeCXzbn9oa7RwJhxYmFG+FYq1Wa6WprOr4tirJELut1UpL2HPuJL5RQBs+s7ZCcW34uzW70PfVLMJ2PD82go7R/1lRUa4qRp61ejSHPt8TWgsWfXrb48ZkKTfMrt3vl+YNrmiLvtjy0BXzTdMDp3e+PGJWJvlUXuNJk0UD82GcfNrK+xT6otyd7jnHxVhbHme/Zbe0lAsePDcbFJXh5xzp3TOjPMTJDRbiZCmqWHlTUGszfKwvTqc7KHR/CS7rcnvKzLCJab9acFgp+KZsTargMwmVxb/WJWttKZXs+4NhG9NEiHsquqTzpvPmA/WBEXa3ilTYRwhpGduit3t+csKt6BehJDCoS7GCpbE8KPNUJ+Wo1jhfCQrpAW/Kl3/CZATGzt4hStM0VCX0pPQVeHhnsQ0Bxuzae0p563cgXZ2ZTB7l/m1lfNZ6taGv6/I4FcFsOnvtFQoQ9Oz7tv8+hM28XOGTYVxsiz3zk8pTTg2uAgsS3cqTqm1nVmadtIZfCkksMKmJ0u5W/xkYRdpnHXfrp8Y4l+CK8UoGOxUloscdSQWDHaGmyCQZXnF5w3txrU+taFsvKXkpgTokkFFkBibRdynzXqWf6grUHanO+NK1h2XKvk/ZwAYt+MYRwgpGOxU3hTcbC4T2yw0IVdNR0InnbfEZDa8OEu/XYi1WT4pcSj7KuneQpKkv21M9l5gvqnWTSzLsqu3mfZiZ1zJmX2tmoUvmqt8UuB2SzlNfz7zbsvUqKCxlY30Hgv9dOOx9CRXb7O4m57zrChL8i/lPAg33agpz/YOzYZxdLdnqiqdlxVbwS9JKRvPnlcy7zZNjgisMLAw/bOlQjtYBj9W4D+bYDWcX1v9oW59W7hLOQ/Ez79l39rd1kran5503uqcWd9Yh82QDU+vLn1TmUV7vZcy7gjWrhFC8gY6FNpIbi5n8+HDo0vzyoz1+4VpE+EHDPy1W40xFcYFNxX3rd1vq1KsoPmmiq/d9OryH6qy6ezvOXeK2Ar5g50vb8w33IrUp40yuym9W/A03LiUFmnFF9ytkPr8m7mPIhZ7cW1VWXvwRSQmYPu0rGCfFvz2P9y/8eUFBThu1BVo1tuFu2p78WbDOCn4EUA5bZLn3Cm5A+3iei16PQrlXC9zjYS2gA53iXvjyXLalZzR1yLu0yZXFhUr/LCxeXi4nH+20ccbvy3xaWm6GD0JIW3T6m5c7MZbfP7L3rU7TJ/GfwrGXkIIKR3pUYptaShmz0Y9DIzbcYwLzfyvfFWRGWezvpiRIu7CqIHHlxfobtofFj3TrBLVeIAUXB1SE2ez/iY9KaNP5ysBTfqhxdnTwZ+kDO4dtbDxTbUmjXK47FujP03zeZlLPGCicyrdc5MXs+/H2oLjeOWDbSU3NjDvWaXfLnxcYhfMptBLApJUMdr3cuadWJvlaWedmPnYu2wjbEKMC1oh9NM0mg0adGsXmoOZfC37QazNYm0oFr999vh9dKR7Mfu+eIxLd+utGut/OfNurM3ypLNuTbhjHyGkeWMDz+9r88XdNHWevIEOuqLubmulbtWUyFnP8hflGeutKRKWEULSuuqPORLj7QmO7kYlk50ImA3j6IpY6jzf1eaHe2OuSEEIyd+YFr3TEvy9BMG/Wc/y7w33aYSQZ10Nx9KT4uxWuwEr0F/4OGJPSGwsiVhsWZaz+9tibJaz7tuu3uZwL0lpXZQ+7XqZSzwUkWXZLwUed9TE2Cyh3zXpE8zrCIQyeMpsGCfL8ujS/EsZwV73WplzzhN5r+yc/vYYm+WMK9nZ0yTmY6VPu1a2adMZXa3oJ8nUCsEvIYTkHfoxw47j6UknnDdzBtojOs+yby2lpeKII+G0K1m8di3Up61v+PB9bb7YzULbMqx+W50bF/xF6ZRw75d167uNSGDcbmBccEJuqPOs+7bBF4KEELooSvm9BIFpZ1aXz2fee6/g6SK3CQV/FSEkubn8xYwUZeNpPg0bkzfQftZ929nTFNFr6Rz1ndbKSzkPasc37S3EZkjDAUkqGe55OeOOrbvBCJbRVdVX8p/8/H1uuBd//F22EWNCjAv9NFnHGXeyo9uoFe61Ba2g2eGJV4MQ0jEz/mbuI0sk4KPXznpWvq/Lv5yf2js3FdEKqz7vzaayVzLvtk2PRUwsy/LC2uq1Utf5rHsR5zxCtNFxxpX8ePNGg3wF14u9uvxG7qM3cx9FHLeEy8FgvNkwLrjtn8+b3Fz+8y4eLdOjxqzguV7mPp91Tzx6VF6FG+/TZj3Lb+U+fj3noXhoQaVeC/ivlTpfyrgTbn2txiILa6vvF6Z9WpI+wX2kr0lJf6st1KdFAD5ax7756bfzHn9XmxfRLfkbbSnGhBhHggu1q084byobKYtrtOj1/PxzkR8X2428MMkf7Djrvp1u4MlCCBlYmHk7L/WvNXlG3HJ0af7zMtfnZS7x+hNal+BuXFNBOPtbfWG4VUBKrVd93iTDfRqdkHs5827EcamS/7YDwLjdwDiKODfqCox0YdSWS17P9XKX7pfSGmMTQuzdjQZbWvD7x9Xlv9UXimdTlFvMeJZTWio0eycqZzUB+osRzp4m8es52j9OrCym9zQZ7Kal0Bx14WCnEUE0pdrSoTkxbs6zcrulfHp1yUhdCCHtM+PpPY0RrRByy7XcgfbqsQEjz3iJkLKR3gJjVqCDV1dvs5FiUJcoGurK2PiFMXFNV3ze72vzNRtNhbuEEOLubYn4Vijc5cbjTYhxdPsDV2+zkTEetULxcLdxK/wQ7NO0WxjqKkYIyehryemP8G5OubZzdvxWU5nBCTC6GY2rt1mwhEDJeUt9msfvKxzqDG3xo+48rGQVxYAJMS64TeCa54/V2cpGyuL60p/icPY0GbHCbKhPM/hk8fh9RUNdJcGNliJbwS8FSoa788N/NqGpxZrfn9pR26G3o40mJWW+UJ8W/EnxiP9WfV5rY7F4pVPETIwkAMbtEsYRQnwBv5GHJTUbIcTrN/qj775AwIh/Kzkb/w2rULEDxostSZJfMpReIsRgSlrsnz+MCEiS8ZIY8X4+jTkxbuesQAihwvJS6MZsyQpbShx8hxV0Y9FaJaVIW21NW2ogyl22GjAhxtG34VtqOH7JFFagJjZoAkKIRCR2j2vBhVtqTVttIIL7ik+ZE+O29BgyiRW2ajISehIZfIBuqU/bkqeJ3UN8Fhi3SxgnNgPOmkQBc2KcScRBMcQKmBPjxGXGWZMoYE6MM4k4KIZYAWAcME7sIYfrLDDucNk7qrUFxkVVzsOVGTDucNk7qrUFxgHjoupQ+zwzYNw+N+BeFh8Yt5fq7/N7A+P2uQH3svjAOGDcXvqf2e4NjDObRfZReYBx+8hYZisqMM5sFtlH5QHGAeP2kbvueFGBcTsu8cG9ATDu4Np2x2sGjNtxiQ/uDYBxwLiD691brxkwbuua4Yp1BYBxcIVtKwCM27Z0uBAYB4xDK1AVAMapWiC0RQWAcVsUDMlVBYBxqhYIbVEBYFwQ4/77/YuvZ1uu5CXh75Ar8FrWjf+Teuxd13/+LDvoGBH/3nL+c/zT0xezbhxy3VD9K3lJZ5zfHn3ybx9l/kNEt6EJ3pjv2R4AAAKHSURBVEz/5//54C1IBwWu5CVdyLzx7w/iDXrOZ9m/eMP5r//7yQdv5lihHhQ4mf71ibT/8VHmPxr3H0HKv2/93wtbv0R7xdXsXwrKZOTUK7b/eibt1/iDAmfSfn3R8S+fZEUGOOpXv8v8h4uOf4FuUIAq8Lbzvxh3no8zf/nis/8G6aDAmbRfn0379WuOfzHytKJpPsz4Ty89+1dIBwWo87zj+qdPDT+2xG6mBSwDx6bAOHGtcBYKQAEoAAWgABSAAgdeAQPYpk0CjDM68XPgvQcVhAJQAApAASgABfZQAS2jGTgGxgHjoAAUgAJQAApAASiw9woYwDZtEmDc3pttD8Eft4YCUAAKQAEoAAVMooCW0QwcA+OAcVAACkABKAAFoAAU2HsFDGCbNgkwbu/NZpJBAIoBBaAAFIACUAAK7KECWkYzcAyMA8ZBASgABaAAFIACUGDvFTCAbdokwLi9N9segj9uDQWgABSAAlAACphEAS2jGTgGxgHjoAAUgAJQAApAASiw9woYwDZtEmDc3pvNJIMAFAMKQAEoAAWgABTYQwW0jGbgGBgHjIMCUAAKQAEoAAWgwN4rYADbtEmig3FXs3+JPygABaAAFIACUAAKQIFtK6BlNAPHUcA4A3dBEigABaAAFIACUAAKQIEoKwCMi7KgyA4KQAEoAAWgABSAArujADBud3TGXaAAFIACUAAKQAEoEGUFgHFRFhTZQQEoAAWgABSAAlBgdxQAxu2OzrgLFIACUAAKQAEoAAWirAAwLsqCIjsoAAWgABSAAlAACuyOAsC43dEZd4ECUAAKQAEoAAWgQJQVeOHvL7xA/4tyxsgOCkABKAAFoAAUgAJQYCcV+P/LxVnB+YurPAAAAABJRU5ErkJggg==;" vertex="1" parent="1">
          <mxGeometry x="1004" y="550" width="554" height="254.41" as="geometry" />
        </mxCell>
        <mxCell id="XJRMVMmhqJX4nJESAcrO-64" value="&lt;font style=&quot;font-size: 25px;&quot;&gt;Thread 0&lt;/font&gt;" style="text;html=1;align=center;verticalAlign=middle;whiteSpace=wrap;rounded=0;" vertex="1" parent="1">
          <mxGeometry x="1025.5" y="490" width="107" height="30" as="geometry" />
        </mxCell>
        <mxCell id="XJRMVMmhqJX4nJESAcrO-65" value="&lt;font style=&quot;font-size: 25px;&quot;&gt;Thread 1&lt;/font&gt;" style="text;html=1;align=center;verticalAlign=middle;whiteSpace=wrap;rounded=0;" vertex="1" parent="1">
          <mxGeometry x="1201.5" y="490" width="107" height="30" as="geometry" />
        </mxCell>
        <mxCell id="XJRMVMmhqJX4nJESAcrO-66" value="&lt;font style=&quot;font-size: 25px;&quot;&gt;Thread 2&lt;/font&gt;" style="text;html=1;align=center;verticalAlign=middle;whiteSpace=wrap;rounded=0;" vertex="1" parent="1">
          <mxGeometry x="1336.5" y="490" width="107" height="30" as="geometry" />
        </mxCell>
        <mxCell id="XJRMVMmhqJX4nJESAcrO-67" value="&lt;font style=&quot;font-size: 25px;&quot;&gt;Thread 3&lt;/font&gt;" style="text;html=1;align=center;verticalAlign=middle;whiteSpace=wrap;rounded=0;" vertex="1" parent="1">
          <mxGeometry x="1451" y="490" width="107" height="30" as="geometry" />
        </mxCell>
      </root>
    </mxGraphModel>
  </diagram>
</mxfile>
